<svg width="125" height="32" viewBox="0 0 125 32" fill="none" xmlns="http://www.w3.org/2000/svg">
<g clip-path="url(#clip0_4956_10451)">
<path d="M29.557 5.79492C30.1409 5.79492 30.4352 6.4979 30.0266 6.91417L26.8555 10.1405L20.5601 16.5454L19.6619 17.4589L19.6466 17.4741L19.6314 17.4894L18.7046 18.4334L17.7768 19.3773L16.8519 20.3185L16.85 20.3204L16.3965 20.7823C16.1384 21.0453 15.7155 21.0453 15.4573 20.7823L15.003 20.3204L15.0011 20.3185L14.0761 19.3773L13.1483 18.4334L12.2253 17.4941L12.2215 17.4903L11.2947 16.5464L6.18996 11.3521C5.78227 10.9368 6.07375 10.2357 6.65671 10.2329C6.83389 10.2329 7.00439 10.3033 7.12918 10.43L12.2187 15.6071L13.1455 16.5502L14.0647 17.4856L14.0733 17.4941L15.0001 18.4381L15.925 19.3792L15.9269 19.3811L15.9288 19.3792L16.8538 18.4381L17.7815 17.4941L17.8073 17.4684L18.7093 16.5511L19.6362 15.6071L25 10.149L29.0874 5.9921C29.2112 5.86636 29.3798 5.79492 29.557 5.79492Z" fill="#E34C31"/>
<path d="M33.3405 5.79492C33.9244 5.79492 34.2188 6.4979 33.8101 6.91417L26.8555 13.9907L20.5601 20.3956L19.6619 21.3091L19.6466 21.3253L19.6314 21.3396L18.7046 22.2836L17.7768 23.2275L16.8519 24.1687L16.85 24.1706L16.3965 24.6326C16.1384 24.8955 15.7155 24.8955 15.4573 24.6326L15.003 24.1706L15.0011 24.1687L14.0761 23.2275L13.1483 22.2836L12.2253 21.3444L12.2215 21.3405L11.2947 20.3966L6.18996 15.2014C5.78227 14.786 6.07375 14.085 6.65671 14.0821C6.83389 14.0821 7.00439 14.1526 7.12918 14.2793L12.2187 19.4564L13.1455 20.3994L14.0647 21.3348L14.0733 21.3434L15.0001 22.2874L15.925 23.2285L15.9269 23.2304L15.9288 23.2285L16.8538 22.2874L17.7815 21.3434L17.8073 21.3177L18.7093 20.4004L19.6362 19.4564L25 13.9983L32.8709 5.9921C32.9947 5.86636 33.1633 5.79492 33.3405 5.79492Z" fill="white"/>
<path d="M25.8554 5.79492C26.4394 5.79492 26.7337 6.4979 26.3251 6.91417L23.1378 10.1566L18.7094 14.6622L17.7816 15.6062L16.8548 16.5502L15.9451 17.476H15.9099L15.0002 16.5502L14.0724 15.6062L13.1456 14.6632L9.87356 11.335C9.46586 10.9196 9.75735 10.2186 10.3403 10.2157H10.3498C10.527 10.2157 10.6975 10.2862 10.8223 10.4129L14.0734 13.7201L15.0002 14.6632L15.4584 15.129C15.7165 15.3909 16.1394 15.3909 16.3976 15.129L16.8558 14.6632L17.7826 13.7192L21.2756 10.1652L25.3773 5.9921C25.5011 5.86636 25.6697 5.79492 25.8469 5.79492H25.8564H25.8554Z" fill="white"/>
<path d="M22.1461 5.79492C22.73 5.79492 23.0243 6.4979 22.6157 6.91417L19.4113 10.1738L16.8547 12.7752L16.3965 13.241C16.1384 13.503 15.7154 13.503 15.4573 13.241L14.9991 12.7752L13.5665 11.3178C13.1588 10.9025 13.4512 10.2005 14.0332 10.1986H14.0418C14.219 10.1986 14.3895 10.2691 14.5143 10.3948L15.4573 11.354C15.7154 11.616 16.1384 11.616 16.3965 11.354L17.5481 10.1824L21.6679 5.9921C21.7917 5.86636 21.9603 5.79492 22.1375 5.79492H22.1461Z" fill="#E34C31"/>
</g>
<path d="M32.48 24H45.992V20.856H38.96L43.328 16.728C44.032 16.088 44.6 15.376 45.032 14.592C45.464 13.808 45.68 12.968 45.68 12.072C45.68 11.464 45.552 10.856 45.296 10.248C45.056 9.64 44.68 9.088 44.168 8.592C43.672 8.08 43.04 7.672 42.272 7.368C41.52 7.048 40.64 6.888 39.632 6.888C38.272 6.888 37.12 7.176 36.176 7.752C35.248 8.312 34.544 9.072 34.064 10.032C33.584 10.992 33.344 12.072 33.344 13.272H36.704C36.704 12.6 36.816 12.008 37.04 11.496C37.28 10.984 37.608 10.592 38.024 10.32C38.456 10.032 38.968 9.888 39.56 9.888C39.976 9.888 40.344 9.96 40.664 10.104C40.984 10.232 41.256 10.408 41.48 10.632C41.704 10.856 41.872 11.112 41.984 11.4C42.096 11.688 42.152 11.984 42.152 12.288C42.152 12.72 42.072 13.136 41.912 13.536C41.752 13.936 41.52 14.336 41.216 14.736C40.912 15.136 40.544 15.568 40.112 16.032L32.48 24Z" fill="white"/>
<path d="M47.4778 20.904H62.0698V17.976H58.6378L58.2298 18.336H52.2298L56.1898 12.672V19.512L55.9018 19.776V24H59.4297V7.2H57.1018L47.4778 20.904ZM65.0724 20.184L63.5604 22.128C63.9764 22.528 64.4404 22.904 64.9524 23.256C65.4804 23.592 66.0644 23.864 66.7044 24.072C67.3604 24.28 68.0804 24.384 68.8644 24.384C70.1284 24.384 71.1204 24.08 71.8404 23.472C72.5604 22.848 72.9204 21.984 72.9204 20.88C72.9204 20.208 72.7684 19.664 72.4644 19.248C72.1604 18.832 71.7524 18.488 71.2404 18.216C70.7444 17.928 70.2004 17.672 69.6084 17.448C69.1284 17.24 68.6964 17.064 68.3124 16.92C67.9444 16.776 67.6564 16.616 67.4484 16.44C67.2564 16.248 67.1604 16.032 67.1604 15.792C67.1604 15.52 67.2564 15.32 67.4484 15.192C67.6564 15.048 67.9364 14.976 68.2884 14.976C68.8164 14.976 69.3524 15.112 69.8964 15.384C70.4564 15.656 70.9364 16.008 71.3364 16.44L72.7044 14.52C72.3524 14.168 71.9444 13.864 71.4804 13.608C71.0164 13.336 70.5124 13.12 69.9684 12.96C69.4244 12.8 68.8404 12.72 68.2164 12.72C67.4804 12.72 66.8084 12.84 66.2004 13.08C65.6084 13.304 65.1364 13.648 64.7844 14.112C64.4324 14.56 64.2564 15.112 64.2564 15.768C64.2564 16.456 64.4084 17.024 64.7124 17.472C65.0324 17.904 65.4324 18.256 65.9124 18.528C66.3924 18.784 66.8884 19.008 67.4004 19.2C67.9444 19.376 68.3924 19.544 68.7444 19.704C69.0964 19.864 69.3604 20.048 69.5364 20.256C69.7284 20.448 69.8244 20.688 69.8244 20.976C69.8244 21.296 69.7124 21.552 69.4884 21.744C69.2644 21.92 68.9444 22.008 68.5284 22.008C68.2084 22.008 67.8644 21.944 67.4964 21.816C67.1444 21.688 66.7684 21.496 66.3684 21.24C65.9684 20.968 65.5364 20.616 65.0724 20.184ZM80.2753 24.24C81.6033 24.24 82.7393 23.984 83.6833 23.472C84.6433 22.944 85.4113 22.16 85.9873 21.12L83.2753 20.28C82.9553 20.808 82.5473 21.208 82.0513 21.48C81.5713 21.736 80.9873 21.864 80.2993 21.864C79.6913 21.864 79.1713 21.728 78.7393 21.456C78.3073 21.184 77.9793 20.792 77.7553 20.28C77.5473 19.768 77.4433 19.144 77.4433 18.408C77.4593 17.64 77.5713 17 77.7793 16.488C78.0033 15.96 78.3153 15.568 78.7153 15.312C79.1313 15.04 79.6433 14.904 80.2513 14.904C80.7473 14.904 81.1793 15.016 81.5473 15.24C81.9153 15.464 82.1953 15.768 82.3873 16.152C82.5953 16.536 82.6993 17 82.6993 17.544C82.6993 17.656 82.6673 17.8 82.6033 17.976C82.5553 18.136 82.4993 18.264 82.4353 18.36L83.2753 17.256H76.0993V19.176H85.9873C86.0033 19.08 86.0113 18.952 86.0113 18.792C86.0273 18.632 86.0353 18.48 86.0353 18.336C86.0353 17.152 85.8113 16.144 85.3633 15.312C84.9153 14.464 84.2593 13.824 83.3953 13.392C82.5473 12.944 81.5153 12.72 80.2993 12.72C79.0833 12.72 78.0273 12.96 77.1313 13.44C76.2353 13.904 75.5393 14.568 75.0433 15.432C74.5633 16.28 74.3232 17.296 74.3232 18.48C74.3232 19.648 74.5633 20.664 75.0433 21.528C75.5393 22.376 76.2353 23.04 77.1313 23.52C78.0273 24 79.0753 24.24 80.2753 24.24ZM86.4442 12.96L92.4922 25.152L98.5402 12.96H95.2042L92.4922 19.608L89.7802 12.96H86.4442ZM104.885 24.24C106.213 24.24 107.349 23.984 108.293 23.472C109.253 22.944 110.021 22.16 110.597 21.12L107.885 20.28C107.565 20.808 107.157 21.208 106.661 21.48C106.181 21.736 105.597 21.864 104.909 21.864C104.301 21.864 103.781 21.728 103.349 21.456C102.917 21.184 102.589 20.792 102.365 20.28C102.157 19.768 102.053 19.144 102.053 18.408C102.069 17.64 102.181 17 102.389 16.488C102.613 15.96 102.925 15.568 103.325 15.312C103.741 15.04 104.253 14.904 104.861 14.904C105.357 14.904 105.789 15.016 106.157 15.24C106.525 15.464 106.805 15.768 106.997 16.152C107.205 16.536 107.309 17 107.309 17.544C107.309 17.656 107.277 17.8 107.213 17.976C107.165 18.136 107.109 18.264 107.045 18.36L107.885 17.256H100.709V19.176H110.597C110.613 19.08 110.621 18.952 110.621 18.792C110.637 18.632 110.645 18.48 110.645 18.336C110.645 17.152 110.421 16.144 109.973 15.312C109.525 14.464 108.869 13.824 108.005 13.392C107.157 12.944 106.125 12.72 104.909 12.72C103.693 12.72 102.637 12.96 101.741 13.44C100.845 13.904 100.149 14.568 99.6526 15.432C99.1726 16.28 98.9326 17.296 98.9326 18.48C98.9326 19.648 99.1726 20.664 99.6526 21.528C100.149 22.376 100.845 23.04 101.741 23.52C102.637 24 103.685 24.24 104.885 24.24ZM120.117 17.28V24H123.333V16.944C123.333 15.616 123.013 14.584 122.373 13.848C121.733 13.096 120.757 12.72 119.445 12.72C118.661 12.72 117.989 12.888 117.429 13.224C116.885 13.544 116.445 14.016 116.109 14.64V12.96H112.989V24H116.109V17.28C116.109 16.816 116.197 16.416 116.373 16.08C116.549 15.744 116.805 15.488 117.141 15.312C117.477 15.12 117.861 15.024 118.293 15.024C118.933 15.024 119.397 15.216 119.685 15.6C119.973 15.984 120.117 16.544 120.117 17.28Z" fill="#E34B31"/>
<defs>
<clipPath id="clip0_4956_10451">
<rect width="20" height="19" fill="white" transform="translate(6 6)"/>
</clipPath>
</defs>
</svg>
