<svg width="103" height="20" viewBox="0 0 103 20" fill="none" xmlns="http://www.w3.org/2000/svg">
<path d="M0.48 18H13.992V14.856H6.96L11.328 10.728C12.032 10.088 12.6 9.376 13.032 8.592C13.464 7.808 13.68 6.968 13.68 6.072C13.68 5.464 13.552 4.856 13.296 4.248C13.056 3.64 12.68 3.088 12.168 2.592C11.672 2.08 11.04 1.672 10.272 1.368C9.52 1.048 8.64 0.887999 7.632 0.887999C6.272 0.887999 5.12 1.176 4.176 1.752C3.248 2.312 2.544 3.072 2.064 4.032C1.584 4.992 1.344 6.072 1.344 7.272H4.704C4.704 6.6 4.816 6.008 5.04 5.496C5.28 4.984 5.608 4.592 6.024 4.32C6.456 4.032 6.968 3.888 7.56 3.888C7.976 3.888 8.344 3.96 8.664 4.104C8.984 4.232 9.256 4.408 9.48 4.632C9.704 4.856 9.872 5.112 9.984 5.4C10.096 5.688 10.152 5.984 10.152 6.288C10.152 6.72 10.072 7.136 9.912 7.536C9.752 7.936 9.52 8.336 9.216 8.736C8.912 9.136 8.544 9.568 8.112 10.032L0.48 18Z" fill="white"/>
<path d="M15.4778 14.904H30.0698V11.976H26.6378L26.2298 12.336H20.2298L24.1898 6.672V13.512L23.9018 13.776V18H27.4297V1.2H25.1018L15.4778 14.904ZM34.2724 12.36L31.8244 14.088C32.1924 14.872 32.7044 15.6 33.3604 16.272C34.0164 16.944 34.7844 17.48 35.6644 17.88C36.5604 18.264 37.5204 18.456 38.5444 18.456C39.3124 18.456 40.0404 18.336 40.7284 18.096C41.4324 17.872 42.0644 17.544 42.6244 17.112C43.1844 16.664 43.6244 16.12 43.9444 15.48C44.2644 14.84 44.4244 14.112 44.4244 13.296C44.4244 12.576 44.3044 11.944 44.0644 11.4C43.8404 10.84 43.5204 10.36 43.1044 9.96C42.7044 9.544 42.2484 9.192 41.7364 8.904C41.2404 8.616 40.7204 8.376 40.1764 8.184C39.3284 7.896 38.6244 7.616 38.0644 7.344C37.5044 7.056 37.0884 6.76 36.8164 6.456C36.5444 6.136 36.4084 5.768 36.4084 5.352C36.4084 4.936 36.5764 4.576 36.9124 4.272C37.2484 3.952 37.7524 3.792 38.4244 3.792C38.9364 3.792 39.3924 3.896 39.7924 4.104C40.1924 4.296 40.5444 4.56 40.8484 4.896C41.1684 5.216 41.4404 5.576 41.6644 5.976L44.3524 4.488C44.0644 3.896 43.6564 3.328 43.1284 2.784C42.6164 2.224 41.9684 1.768 41.1844 1.416C40.4164 1.048 39.4964 0.863999 38.4244 0.863999C37.3844 0.863999 36.4404 1.056 35.5924 1.44C34.7604 1.808 34.0964 2.344 33.6004 3.048C33.1204 3.736 32.8804 4.56 32.8804 5.52C32.8804 6.32 33.0324 7.008 33.3364 7.584C33.6404 8.144 34.0244 8.624 34.4884 9.024C34.9524 9.408 35.4404 9.728 35.9524 9.984C36.4804 10.224 36.9444 10.416 37.3444 10.56C38.0964 10.848 38.7284 11.12 39.2404 11.376C39.7684 11.616 40.1604 11.896 40.4164 12.216C40.6884 12.536 40.8244 12.96 40.8244 13.488C40.8244 14.096 40.6084 14.576 40.1764 14.928C39.7444 15.28 39.1844 15.456 38.4964 15.456C37.9044 15.456 37.3524 15.328 36.8404 15.072C36.3284 14.816 35.8564 14.456 35.4244 13.992C35.0084 13.528 34.6244 12.984 34.2724 12.36ZM52.1424 18.24C53.4704 18.24 54.6064 17.984 55.5504 17.472C56.5104 16.944 57.2784 16.16 57.8544 15.12L55.1424 14.28C54.8224 14.808 54.4144 15.208 53.9184 15.48C53.4384 15.736 52.8544 15.864 52.1664 15.864C51.5584 15.864 51.0384 15.728 50.6064 15.456C50.1744 15.184 49.8464 14.792 49.6224 14.28C49.4144 13.768 49.3104 13.144 49.3104 12.408C49.3264 11.64 49.4384 11 49.6464 10.488C49.8704 9.96 50.1824 9.568 50.5824 9.312C50.9984 9.04 51.5104 8.904 52.1184 8.904C52.6144 8.904 53.0464 9.016 53.4144 9.24C53.7824 9.464 54.0624 9.768 54.2544 10.152C54.4624 10.536 54.5664 11 54.5664 11.544C54.5664 11.656 54.5344 11.8 54.4704 11.976C54.4224 12.136 54.3664 12.264 54.3024 12.36L55.1424 11.256H47.9664V13.176H57.8544C57.8704 13.08 57.8784 12.952 57.8784 12.792C57.8944 12.632 57.9024 12.48 57.9024 12.336C57.9024 11.152 57.6784 10.144 57.2304 9.312C56.7824 8.464 56.1264 7.824 55.2624 7.392C54.4144 6.944 53.3824 6.72 52.1664 6.72C50.9504 6.72 49.8944 6.96 48.9984 7.44C48.1024 7.904 47.4064 8.568 46.9104 9.432C46.4304 10.28 46.1904 11.296 46.1904 12.48C46.1904 13.648 46.4304 14.664 46.9104 15.528C47.4064 16.376 48.1024 17.04 48.9984 17.52C49.8944 18 50.9424 18.24 52.1424 18.24ZM58.3114 6.96L64.3594 19.152L70.4074 6.96H67.0714L64.3594 13.608L61.6474 6.96H58.3114ZM76.7518 18.24C78.0798 18.24 79.2158 17.984 80.1598 17.472C81.1198 16.944 81.8878 16.16 82.4638 15.12L79.7518 14.28C79.4318 14.808 79.0238 15.208 78.5278 15.48C78.0478 15.736 77.4638 15.864 76.7758 15.864C76.1678 15.864 75.6478 15.728 75.2158 15.456C74.7838 15.184 74.4558 14.792 74.2318 14.28C74.0238 13.768 73.9198 13.144 73.9198 12.408C73.9358 11.64 74.0478 11 74.2558 10.488C74.4798 9.96 74.7918 9.568 75.1918 9.312C75.6078 9.04 76.1198 8.904 76.7278 8.904C77.2238 8.904 77.6558 9.016 78.0238 9.24C78.3918 9.464 78.6718 9.768 78.8638 10.152C79.0718 10.536 79.1758 11 79.1758 11.544C79.1758 11.656 79.1438 11.8 79.0798 11.976C79.0318 12.136 78.9758 12.264 78.9118 12.36L79.7518 11.256H72.5758V13.176H82.4638C82.4798 13.08 82.4878 12.952 82.4878 12.792C82.5038 12.632 82.5118 12.48 82.5118 12.336C82.5118 11.152 82.2878 10.144 81.8398 9.312C81.3918 8.464 80.7358 7.824 79.8718 7.392C79.0238 6.944 77.9918 6.72 76.7758 6.72C75.5598 6.72 74.5038 6.96 73.6078 7.44C72.7118 7.904 72.0158 8.568 71.5198 9.432C71.0398 10.28 70.7998 11.296 70.7998 12.48C70.7998 13.648 71.0398 14.664 71.5198 15.528C72.0158 16.376 72.7118 17.04 73.6078 17.52C74.5038 18 75.5518 18.24 76.7518 18.24ZM91.9843 11.28V18H95.2003V10.944C95.2003 9.616 94.8803 8.584 94.2403 7.848C93.6003 7.096 92.6243 6.72 91.3123 6.72C90.5283 6.72 89.8563 6.888 89.2963 7.224C88.7523 7.544 88.3123 8.016 87.9763 8.64V6.96H84.8563V18H87.9763V11.28C87.9763 10.816 88.0643 10.416 88.2403 10.08C88.4163 9.744 88.6723 9.488 89.0083 9.312C89.3443 9.12 89.7283 9.024 90.1603 9.024C90.8003 9.024 91.2643 9.216 91.5523 9.6C91.8403 9.984 91.9843 10.544 91.9843 11.28ZM98.5506 16.584C98.5506 17.096 98.7346 17.544 99.1026 17.928C99.4866 18.312 99.9586 18.504 100.519 18.504C101.095 18.504 101.567 18.312 101.935 17.928C102.303 17.544 102.487 17.096 102.487 16.584C102.487 16.04 102.303 15.584 101.935 15.216C101.567 14.832 101.095 14.64 100.519 14.64C99.9586 14.64 99.4866 14.832 99.1026 15.216C98.7346 15.584 98.5506 16.04 98.5506 16.584Z" fill="#E34B31"/>
</svg>
