<svg width="18" height="18" viewBox="0 0 18 18" fill="none" xmlns="http://www.w3.org/2000/svg">
<path d="M17.125 9C17.125 9.69102 16.5652 10.2504 15.875 10.2504H10.25V15.8754C10.25 16.5664 9.69023 17.125 9 17.125C8.30977 17.125 7.75 16.5664 7.75 15.8754V10.2504H2.125C1.43477 10.2504 0.875 9.69102 0.875 9C0.875 8.30898 1.43477 7.75039 2.125 7.75039H7.75V2.12539C7.75 1.43437 8.30977 0.875 9 0.875C9.69023 0.875 10.25 1.43437 10.25 2.12539V7.75039H15.875C16.5664 7.75 17.125 8.30859 17.125 9Z" fill="#E34B31"/>
</svg>
