<svg width="20" height="20" viewBox="0 0 20 20" fill="none" xmlns="http://www.w3.org/2000/svg">
<path d="M18.125 10C18.125 10.691 17.5652 11.2504 16.875 11.2504H11.25V16.8754C11.25 17.5664 10.6902 18.125 10 18.125C9.30977 18.125 8.75 17.5664 8.75 16.8754V11.2504H3.125C2.43477 11.2504 1.875 10.691 1.875 10C1.875 9.30898 2.43477 8.75039 3.125 8.75039H8.75V3.12539C8.75 2.43437 9.30977 1.875 10 1.875C10.6902 1.875 11.25 2.43437 11.25 3.12539V8.75039H16.875C17.5664 8.75 18.125 9.30859 18.125 10Z" fill="black" fill-opacity="0.87"/>
</svg>
