<svg width="20" height="16" viewBox="0 0 20 16" fill="none" xmlns="http://www.w3.org/2000/svg">
<path fill-rule="evenodd" clip-rule="evenodd" d="M7.62187 10.5H17.25C17.6656 10.5 18 10.8344 18 11.2781C18 11.6641 17.6641 12 17.25 12H7C6.64062 12 6.33125 11.7438 6.235 11.3906L4.35125 1.5H2.72187C2.33594 1.5 2 1.10781 2 0.721875C2 0.335938 2.33594 0 2.72187 0H5C5.35937 0 5.66875 0.255938 5.7375 0.609688L7.62187 10.5ZM7.47188 13C6.64344 13 6 13.6716 6 14.5C6 15.3284 6.67188 16 7.47188 16C8.27188 16 8.94375 15.3284 8.94375 14.5C8.94375 13.6716 8.32813 13 7.47188 13ZM16.4719 13C15.6434 13 15 13.6716 15 14.5C15 15.3284 15.6716 16 16.4719 16C17.2722 16 17.9719 15.3284 17.9719 14.5C17.9719 13.6716 17.3281 13 16.4719 13Z" fill="#E34B31"/>
<path opacity="0.4" fill-rule="evenodd" clip-rule="evenodd" d="M18.9719 1C19.3156 1 19.6063 1.145 19.7969 1.39781C19.9875 1.65094 20.0469 1.97031 19.9338 2.30281L18.2194 8.27469C18.0978 8.7015 17.7028 9 17.2581 9H7.30812L5.78437 1H18.9719ZM3.25 4.5H0.75C0.335937 4.5 0 4.16563 0 3.75C0 3.33437 0.335937 3 0.75 3H3.25C3.66563 3 4 3.33437 4 3.75C4 4.16563 3.66563 4.5 3.25 4.5ZM0.75 7H3.75C4.16563 7 4.5 6.66563 4.5 6.25C4.5 5.83563 4.16437 5.5 3.75 5.5H0.75C0.335937 5.5 0 5.83437 0 6.25C0 6.66563 0.335937 7 0.75 7ZM0.75 8H4.25C4.66562 8 5 8.33437 5 8.75C5 9.16562 4.66562 9.5 4.25 9.5H0.75C0.335937 9.5 0 9.16562 0 8.75C0 8.33437 0.335937 8 0.75 8Z" fill="#E34B31"/>
</svg>
