<svg width="16" height="16" viewBox="0 0 16 16" fill="none" xmlns="http://www.w3.org/2000/svg">
<path d="M15.0359 12.9408C15.6219 13.5268 15.6219 14.476 15.0359 15.0619C14.7453 15.3549 14.3609 15.5002 13.9766 15.5002C13.5922 15.5002 13.2087 15.3537 12.9163 15.0607L7.97656 10.1236L3.03734 15.0596C2.74437 15.3549 2.36047 15.5002 1.97656 15.5002C1.59266 15.5002 1.20922 15.3549 0.916016 15.0596C0.330078 14.4736 0.330078 13.5244 0.916016 12.9385L5.85664 7.99785L0.916016 3.05957C0.330078 2.47363 0.330078 1.52441 0.916016 0.938477C1.50195 0.352539 2.45117 0.352539 3.03711 0.938477L7.97656 5.88145L12.9172 0.94082C13.5031 0.354883 14.4523 0.354883 15.0383 0.94082C15.6242 1.52676 15.6242 2.47598 15.0383 3.06191L10.0977 8.00254L15.0359 12.9408Z" fill="black" fill-opacity="0.6"/>
</svg>
