<svg width="14" height="14" viewBox="0 0 14 14" fill="none" xmlns="http://www.w3.org/2000/svg">
<path d="M12.8633 11.1172C13.3516 11.6055 13.3516 12.3965 12.8633 12.8848C12.6211 13.1289 12.3008 13.25 11.9805 13.25C11.6602 13.25 11.3406 13.1279 11.0969 12.8838L6.98047 8.76953L2.86445 12.8828C2.62031 13.1289 2.30039 13.25 1.98047 13.25C1.66055 13.25 1.34102 13.1289 1.09668 12.8828C0.608398 12.3945 0.608398 11.6035 1.09668 11.1152L5.21387 6.99805L1.09668 2.88281C0.608398 2.39453 0.608398 1.60352 1.09668 1.11523C1.58496 0.626953 2.37598 0.626953 2.86426 1.11523L6.98047 5.23438L11.0977 1.11719C11.5859 0.628906 12.377 0.628906 12.8652 1.11719C13.3535 1.60547 13.3535 2.39648 12.8652 2.88477L8.74805 7.00195L12.8633 11.1172Z" fill="#E53451"/>
</svg>
