<svg width="32" height="32" viewBox="0 0 32 32" fill="none" xmlns="http://www.w3.org/2000/svg">
<rect width="32" height="32" rx="16" fill="#E34B31"/>
<path d="M10.4132 16.0002H21.5243C22.1354 16.0002 22.6354 15.5002 22.6354 14.8891V8.22244C22.6354 7.61133 22.1354 7.11133 21.5243 7.11133H18.2222V11.5558L16 10.4447L13.7465 11.5558V7.11133H10.4132C9.83332 7.11133 9.33228 7.61133 9.33228 8.22244V14.8891C9.33228 15.5002 9.83332 16.0002 10.4132 16.0002Z" fill="white"/>
<path opacity="0.4" fill-rule="evenodd" clip-rule="evenodd" d="M18.191 7.11133V11.5558L15.9375 10.4447L13.7465 11.5558V7.11133H18.191ZM23.7872 18.4943C24.4049 18.0363 25.2736 18.17 25.7292 18.7884C26.184 19.4065 26.0521 20.2745 25.375 20.7294L20.684 24.1849C20.0667 24.6395 19.3066 24.8891 18.5417 24.8891H6.52431C6.25177 24.8891 6 24.6391 6 24.3336L6 20.9697C6 20.666 6.22056 20.4134 6.52431 20.4134L8.44722 20.5072L10.0618 19.1968C10.791 18.6065 11.7292 18.2853 12.6354 18.2853H18.2212C18.8983 18.2853 19.4319 18.9197 19.3191 19.5829C19.2281 20.1294 18.6847 20.5072 18.1604 20.5072H15.4434C15.1708 20.5072 14.9191 20.7589 14.9191 21.0315C14.9191 21.3041 15.1397 21.5558 15.4434 21.5558H19.6309L23.7872 18.4943Z" fill="white"/>
</svg>
