<svg width="18" height="20" viewBox="0 0 18 20" fill="none" xmlns="http://www.w3.org/2000/svg">
<path d="M17.75 1.87499V3.12499C17.75 3.47014 17.4702 3.74999 17.125 3.74999H0.875C0.529844 3.74999 0.25 3.47014 0.25 3.12499V1.87499C0.25 1.52975 0.529844 1.24999 0.875 1.24999H5.25L5.70234 0.345301C5.80859 0.133738 6.02344 0 6.26172 0H11.7383C11.975 0 12.1914 0.13375 12.2973 0.345469L12.75 1.24999H17.125C17.4688 1.24999 17.75 1.52968 17.75 1.87499Z" fill="white"/>
<path opacity="0.7" d="M2.32852 18.2422C2.38953 19.2125 3.22773 20 4.19961 20H13.8012C14.773 20 15.6109 19.2125 15.6723 18.2422L16.5 3.75H1.5L2.32852 18.2422Z" fill="white"/>
</svg>
