<svg width="21" height="26" viewBox="0 0 21 26" fill="none" xmlns="http://www.w3.org/2000/svg">
<rect x="0.0666504" width="20" height="20" rx="10" fill="#E34B31"/>
<path fill-rule="evenodd" clip-rule="evenodd" d="M15.6917 11.875H16.0042C16.176 11.875 16.3167 12.0156 16.3167 12.1875V12.8125C16.3167 12.9843 16.1763 13.125 16.0042 13.125H15.0237C14.8538 12.0689 13.9772 11.25 12.8792 11.25C11.7795 11.25 10.8772 12.0684 10.7235 13.125H9.4104C9.25806 12.0662 8.35532 11.25 7.25415 11.25C6.27954 11.25 5.49224 11.8691 5.19548 12.7246C5.08847 12.5723 5.02446 12.3877 5.02446 12.1875V10H7.87915C8.05103 10 8.19165 9.85938 8.19165 9.6875C8.19165 9.51562 8.05103 9.375 7.87915 9.375H5.02446V8.75H8.50415C8.67603 8.75 8.81665 8.60937 8.81665 8.4375C8.81665 8.26562 8.67603 8.125 8.50415 8.125H5.02446V7.5H9.12915C9.30103 7.5 9.44165 7.35937 9.44165 7.1875C9.44165 7.01562 9.30103 6.875 9.12915 6.875H5.02368V5.9375C5.02368 5.41992 5.4436 5 5.96118 5H11.0042C11.5217 5 11.9417 5.41992 11.9417 5.9375V6.875H12.9338C13.262 6.875 13.5842 7.00781 13.8166 7.24219L15.3256 8.75117C15.5618 8.9873 15.6917 9.30098 15.6917 9.63477V11.875ZM11.9417 10H14.4417V9.63477L12.9329 8.125H11.9417V10Z" fill="white"/>
<path opacity="0.4" fill-rule="evenodd" clip-rule="evenodd" d="M4.12915 6.875H9.12915C9.30102 6.875 9.44165 7.01563 9.44165 7.1875C9.44165 7.35938 9.30103 7.5 9.11157 7.5H4.11157C3.95657 7.5 3.81665 7.32422 3.81665 7.16992C3.81665 7.01563 3.95657 6.875 4.12915 6.875ZM4.75415 8.125H8.50415C8.67603 8.125 8.81665 8.26563 8.81665 8.4375C8.81665 8.60938 8.67603 8.75 8.48657 8.75H4.73657C4.58149 8.75 4.44165 8.60938 4.44165 8.4375C4.44165 8.26563 4.58149 8.125 4.75415 8.125ZM7.25415 11.875C6.39087 11.875 5.69165 12.5742 5.69165 13.4375C5.69165 14.3008 6.39087 15 7.25415 15C8.11743 15 8.81665 14.3008 8.81665 13.4375C8.81665 12.5742 8.11743 11.875 7.25415 11.875ZM12.8792 11.875C12.0163 11.875 11.3167 12.5746 11.3167 13.4375C11.3167 14.3004 12.0163 15 12.8792 15C13.742 15 14.4417 14.3004 14.4417 13.4375C14.4417 12.5742 13.7424 11.875 12.8792 11.875ZM8.19165 9.6875C8.19165 9.51563 8.05103 9.375 7.87915 9.375H4.12915C3.95657 9.375 3.81665 9.51563 3.81665 9.6875C3.81665 9.85938 3.95657 10 4.11157 10H7.86157C8.05103 10 8.19165 9.85938 8.19165 9.6875Z" fill="white"/>
<circle cx="10.0667" cy="24" r="2" fill="#E34B31"/>
</svg>
