<svg width="20" height="16" viewBox="0 0 20 16" fill="none" xmlns="http://www.w3.org/2000/svg">
<path fill-rule="evenodd" clip-rule="evenodd" d="M19 11H19.5C19.775 11 20 11.225 20 11.5V12.5C20 12.7749 19.7754 13 19.5 13H17.9313C17.6594 11.3103 16.2569 10 14.5 10C12.7406 10 11.2969 11.3094 11.051 13H8.95002C8.70627 11.3059 7.2619 10 5.50002 10C3.94065 10 2.68096 10.9906 2.20615 12.3594C2.03493 12.1156 1.93252 11.8203 1.93252 11.5V8H6.50002C6.77502 8 7.00002 7.775 7.00002 7.5C7.00002 7.225 6.77502 7 6.50002 7H1.93252V6H7.50002C7.77502 6 8.00002 5.775 8.00002 5.5C8.00002 5.225 7.77502 5 7.50002 5H1.93252V4H8.50002C8.77502 4 9.00002 3.775 9.00002 3.5C9.00002 3.225 8.77502 3 8.50002 3H1.93127V1.5C1.93127 0.671875 2.60315 0 3.43127 0H11.5C12.3281 0 13 0.671875 13 1.5V3H14.5875C15.1125 3 15.6281 3.2125 16 3.5875L18.4144 6.00187C18.7922 6.37969 19 6.88156 19 7.41563V11ZM13 8H17V7.41563L14.586 5H13V8Z" fill="#E34B31"/>
<path opacity="0.4" fill-rule="evenodd" clip-rule="evenodd" d="M0.5 3H8.5C8.775 3 9 3.225 9 3.5C9 3.775 8.775 4 8.47188 4H0.471875C0.223875 4 0 3.71875 0 3.47188C0 3.225 0.223875 3 0.5 3ZM1.5 5H7.5C7.775 5 8 5.225 8 5.5C8 5.775 7.775 6 7.47188 6H1.47187C1.22375 6 1 5.775 1 5.5C1 5.225 1.22375 5 1.5 5ZM5.5 11C4.11875 11 3 12.1187 3 13.5C3 14.8813 4.11875 16 5.5 16C6.88125 16 8 14.8813 8 13.5C8 12.1187 6.88125 11 5.5 11ZM14.5 11C13.1194 11 12 12.1194 12 13.5C12 14.8806 13.1194 16 14.5 16C15.8806 16 17 14.8806 17 13.5C17 12.1187 15.8813 11 14.5 11ZM7 7.5C7 7.225 6.775 7 6.5 7H0.5C0.223875 7 0 7.225 0 7.5C0 7.775 0.223875 8 0.471875 8H6.47188C6.775 8 7 7.775 7 7.5Z" fill="#E34B31"/>
</svg>
