<svg width="32" height="32" viewBox="0 0 32 32" fill="none" xmlns="http://www.w3.org/2000/svg">
<rect width="32" height="32" rx="16" fill="#EDEFF2"/>
<path fill-rule="evenodd" clip-rule="evenodd" d="M25 19H25.5C25.775 19 26 19.225 26 19.5V20.5C26 20.7749 25.7754 21 25.5 21H23.9313C23.6594 19.3103 22.2569 18 20.5 18C18.7406 18 17.2969 19.3094 17.051 21H14.95C14.7063 19.3059 13.2619 18 11.5 18C9.94065 18 8.68096 18.9906 8.20615 20.3594C8.03493 20.1156 7.93252 19.8203 7.93252 19.5V16H12.5C12.775 16 13 15.775 13 15.5C13 15.225 12.775 15 12.5 15H7.93252V14H13.5C13.775 14 14 13.775 14 13.5C14 13.225 13.775 13 13.5 13H7.93252V12H14.5C14.775 12 15 11.775 15 11.5C15 11.225 14.775 11 14.5 11H7.93127V9.5C7.93127 8.67187 8.60315 8 9.43127 8H17.5C18.3281 8 19 8.67187 19 9.5V11H20.5875C21.1125 11 21.6281 11.2125 22 11.5875L24.4144 14.0019C24.7922 14.3797 25 14.8816 25 15.4156V19ZM19 16H23V15.4156L20.586 13H19V16Z" fill="#545D78"/>
<path opacity="0.4" fill-rule="evenodd" clip-rule="evenodd" d="M6.5 11H14.5C14.775 11 15 11.225 15 11.5C15 11.775 14.775 12 14.4719 12H6.47188C6.22388 12 6 11.7188 6 11.4719C6 11.225 6.22388 11 6.5 11ZM7.5 13H13.5C13.775 13 14 13.225 14 13.5C14 13.775 13.775 14 13.4719 14H7.47187C7.22375 14 7 13.775 7 13.5C7 13.225 7.22375 13 7.5 13ZM11.5 19C10.1187 19 9 20.1187 9 21.5C9 22.8813 10.1187 24 11.5 24C12.8812 24 14 22.8813 14 21.5C14 20.1187 12.8812 19 11.5 19ZM20.5 19C19.1194 19 18 20.1194 18 21.5C18 22.8806 19.1194 24 20.5 24C21.8806 24 23 22.8806 23 21.5C23 20.1187 21.8813 19 20.5 19ZM13 15.5C13 15.225 12.775 15 12.5 15H6.5C6.22388 15 6 15.225 6 15.5C6 15.775 6.22388 16 6.47188 16H12.4719C12.775 16 13 15.775 13 15.5Z" fill="#545D78"/>
</svg>
