<svg width="48" height="48" viewBox="0 0 48 48" fill="none" xmlns="http://www.w3.org/2000/svg">
<rect width="48" height="48" rx="24" fill="#FFEBEE"/>
<path fill-rule="evenodd" clip-rule="evenodd" d="M34.4167 28.1667H18.3698L15.2292 11.6829C15.1146 11.0933 14.599 10.6667 14 10.6667H10.2031C9.5599 10.6667 9 11.2266 9 11.8699C9 12.5131 9.5599 13.1667 10.2031 13.1667H12.9188L16.0583 29.6511C16.2188 30.2397 16.7344 30.6667 17.3333 30.6667H34.4167C35.1068 30.6667 35.6667 30.1069 35.6667 29.4167C35.6667 28.7266 35.1094 28.1667 34.4167 28.1667ZM24.9833 18.999L23.5521 17.5678C23.1354 17.1511 23.1354 16.4688 23.5526 16.0522C23.9693 15.6356 24.6511 15.6356 25.0677 16.0522L26.4984 17.4838L27.9291 16.0531C28.3457 15.6364 29.0275 15.6365 29.4442 16.0532C29.8608 16.4698 29.861 17.1515 29.4443 17.5683L28.0135 18.999L29.4448 20.4302C29.8614 20.8469 29.8614 21.5287 29.4448 21.9453C29.0281 22.3152 28.3463 22.362 27.9297 21.9454L26.4984 20.5141L25.0677 21.9449C24.651 22.3616 23.9692 22.3615 23.5526 21.9449C23.136 21.5282 23.1359 20.8465 23.5526 20.4298L24.9833 18.999ZM15.7135 34.8334C15.7135 33.4527 16.7859 32.3334 18.1667 32.3334C19.5469 32.3334 20.6198 33.4527 20.6198 34.8334C20.6198 36.2141 19.5469 37.3334 18.1667 37.3334C16.7865 37.3334 15.7135 36.2141 15.7135 34.8334ZM30.6667 34.8334C30.6667 33.4527 31.7391 32.3334 33.1198 32.3334C34.5469 32.3334 35.5729 33.4527 35.5729 34.8334C35.5729 36.2141 34.4536 37.3334 33.1198 37.3334C31.7859 37.3334 30.6667 36.2141 30.6667 34.8334Z" fill="#E53451"/>
<path opacity="0.4" fill-rule="evenodd" clip-rule="evenodd" d="M37.2865 12.3335C37.8594 12.3335 38.3437 12.5752 38.6615 12.9965C38.9792 13.4184 39.0781 13.9507 38.8901 14.5049L36.0328 24.458C35.8302 25.1691 35.1713 25.6668 34.4302 25.6668H17.8469L15.3073 12.3335H37.2865ZM26.501 20.5168L27.9323 21.9481C28.3489 22.3647 29.0312 22.3647 29.4449 21.945C29.8615 21.5283 29.8615 20.8465 29.4449 20.4299L28.0136 18.9986L29.4443 17.5679C29.861 17.1513 29.8609 16.4694 29.4443 16.0528C29.0276 15.6362 28.3459 15.636 27.9292 16.0528L26.4984 17.4835L25.0672 16.0522C24.6505 15.6356 23.9687 15.6356 23.5521 16.0522C23.1354 16.4689 23.1354 17.1512 23.5521 17.5679L24.9859 19.0017L23.5552 20.4325C23.1385 20.8491 23.1385 21.5309 23.5552 21.9476C23.9719 22.3642 24.6536 22.3643 25.0703 21.9476L26.501 20.5168Z" fill="#E53451"/>
</svg>
