<svg width="22" height="22" viewBox="0 0 22 22" fill="none" xmlns="http://www.w3.org/2000/svg">
<path fill-rule="evenodd" clip-rule="evenodd" d="M11.4167 0.5V6.5H21.1667V19.25C21.1667 20.4927 20.1593 21.5 18.9167 21.5H2.41669C1.17403 21.5 0.166687 20.4922 0.166687 19.25V6.5H9.91669V0.5H11.4167ZM10.2964 16.6297L14.7964 12.1297C15.2745 11.7313 15.2768 11.0209 14.8372 10.5814C14.3975 10.142 13.6857 10.142 13.2462 10.5814L9.54169 14.2859L8.08716 12.8295C7.64747 12.39 6.93567 12.3898 6.49622 12.8295C6.05677 13.2692 6.05677 13.981 6.49622 14.4204L8.74622 16.6704C8.96606 16.8901 9.25575 17 9.54169 17C9.82762 17 10.1182 16.8922 10.2964 16.6297Z" fill="#E34B31"/>
<path opacity="0.4" fill-rule="evenodd" clip-rule="evenodd" d="M9.91669 0.5V6.5H0.225281C0.216492 6.48828 0.210632 6.48008 0.204773 6.47188C0.198914 6.46367 0.193054 6.45547 0.184265 6.44375L2.82684 1.52562C3.03216 0.910156 3.60028 0.5 4.25091 0.5H9.91669ZM18.5051 1.52656L21.1479 6.44375C21.1409 6.45547 21.135 6.46367 21.1292 6.47188C21.1233 6.48008 21.1175 6.48828 21.1104 6.5H11.4167V0.5H17.0839C17.7354 0.5 18.3026 0.910156 18.5051 1.52656Z" fill="#E34B31"/>
</svg>
