<svg width="20" height="20" viewBox="0 0 20 20" fill="none" xmlns="http://www.w3.org/2000/svg">
<path d="M17.5651 6.37987L10.4818 3.42935C10.3281 3.37316 10.1641 3.33952 9.99999 3.33301C9.83332 3.33952 9.66926 3.3699 9.51822 3.42849L2.43489 6.37987C1.96926 6.57519 1.66666 7.02831 1.66666 7.53352V16.2497C1.66666 16.4808 1.8522 16.6663 2.08332 16.6663L3.74999 16.6663C3.98111 16.6663 4.16666 16.4808 4.16666 16.2497V9.99967C4.16666 9.54081 4.54739 9.18977 5.0164 9.18977H14.9851C15.4531 9.16633 15.8333 9.54133 15.8333 9.99967V16.2497C15.8333 16.4808 16.0189 16.6663 16.25 16.6663L17.9167 16.6663C18.1478 16.6663 18.3333 16.4808 18.3333 16.2497V7.53352C18.3333 7.02831 18.0312 6.57519 17.5651 6.37987Z" fill="#545D78"/>
<path opacity="0.4" fill-rule="evenodd" clip-rule="evenodd" d="M9.58318 10.833H5.41651C5.18995 10.833 4.99985 11.0231 4.99985 11.2497V12.9163C4.99985 13.1455 5.18995 13.333 5.41651 13.333H9.58318C9.81105 13.333 9.99985 13.1442 9.99985 12.9163V11.2497C9.99985 11.0231 9.81235 10.833 9.58318 10.833ZM9.58305 14.1664H5.41638C5.18982 14.1664 4.99971 14.3565 4.99971 14.5831V16.2497C4.99971 16.4789 5.18982 16.6664 5.41638 16.6664H9.58305C9.81091 16.6664 9.99971 16.4776 9.99971 16.2497V14.5831C9.99971 14.3565 9.81221 14.1664 9.58305 14.1664ZM11.25 14.1664H14.5833C14.8125 14.1664 15 14.3565 15 14.5831V16.2497C15 16.4776 14.8112 16.6664 14.5833 16.6664H11.25C11.0221 16.6664 10.8333 16.4776 10.8333 16.2497V14.5831C10.8333 14.3552 11.0221 14.1664 11.25 14.1664Z" fill="#545D78"/>
</svg>
