<svg width="32" height="32" viewBox="0 0 32 32" fill="none" xmlns="http://www.w3.org/2000/svg">
<rect width="32" height="32" rx="10" fill="#E34B31"/>
<path d="M15.1172 19.3828L10.1172 14.3828C9.62891 13.8945 9.62891 13.1035 10.1172 12.6152C10.6055 12.127 11.3965 12.127 11.8848 12.6152L14.75 15.4844V7.25C14.75 6.55898 15.309 6 16 6C16.691 6 17.25 6.55898 17.25 7.25V15.4844L20.1164 12.618C20.6047 12.1297 21.3957 12.1297 21.884 12.618C22.3719 13.1059 22.3727 13.8969 21.884 14.3855L16.884 19.3855C16.3945 19.8711 15.6055 19.8711 15.1172 19.3828Z" fill="white"/>
<path opacity="0.4" d="M24.75 22.25V19.75C24.75 19.0598 24.1902 18.5 23.5 18.5C22.8098 18.5 22.25 19.0598 22.25 19.75V22.25C22.25 22.9402 21.6902 23.5 21 23.5H11C10.3098 23.5 9.75 22.9402 9.75 22.25V19.75C9.75 19.0598 9.19023 18.5 8.5 18.5C7.80977 18.5 7.25 19.0598 7.25 19.75V22.25C7.25 24.3211 8.92891 26 11 26H21C23.0703 26 24.75 24.3203 24.75 22.25Z" fill="white"/>
</svg>
