<svg width="20" height="20" viewBox="0 0 20 20" fill="none" xmlns="http://www.w3.org/2000/svg">
<path d="M10 6.66699C9.92016 6.66699 9.80558 6.68088 9.70488 6.69477C9.88891 7.01421 10 7.38227 10 7.7781C10 9.00553 9.00523 10.0003 7.7778 10.0003C7.38196 10.0003 6.98266 9.88574 6.69099 9.70519C6.68058 9.80935 6.66669 9.91699 6.66669 10.0003C6.66669 11.8094 8.15974 13.3337 10 13.3337C11.8403 13.3337 13.3334 11.841 13.3334 10.0007C13.3334 8.1604 11.809 6.66699 10 6.66699Z" fill="black" fill-opacity="0.6"/>
<path opacity="0.4" fill-rule="evenodd" clip-rule="evenodd" d="M10 2.22266C14.2674 2.22266 17.9965 5.12196 19.8785 9.37891C19.9444 9.56293 20 9.82682 20 10.0004C20 10.1428 19.9444 10.4379 19.8785 10.622C17.9965 14.8761 14.2674 17.7782 10 17.7782C5.73264 17.7782 2.00417 14.8789 0.120451 10.5918C0.0542361 10.4379 0 10.1732 0 10.0004C0 9.82682 0.0542708 9.56293 0.120451 9.37891C2.00312 5.12543 5.73264 2.22266 10 2.22266ZM10.0035 15.0004C12.7615 15.0004 15 12.7591 15 10.0004C15 7.24002 12.7604 5.00043 10 5.00043C7.23958 5.00043 5 7.24002 5 10.0004C5 12.7609 7.24306 15.0004 10.0035 15.0004Z" fill="black" fill-opacity="0.6"/>
</svg>
