<svg width="20" height="18" viewBox="0 0 20 18" fill="none" xmlns="http://www.w3.org/2000/svg">
<path fill-rule="evenodd" clip-rule="evenodd" d="M1.38839 0H18.5714C19.3616 0 20 0.638393 20 1.42857C20 2.21875 19.3616 2.85714 18.5312 2.85714H1.38839C0.639732 2.85714 0 2.13705 0 1.38839C0 0.639732 0.639732 0 1.38839 0ZM1.38839 14.2857H18.5714C19.3616 14.2857 20 14.9241 20 15.7143C20 16.5045 19.3616 17.1429 18.5312 17.1429H1.38839C0.639732 17.1429 0 16.4241 0 15.6741C0 14.9241 0.639732 14.2857 1.38839 14.2857Z" fill="black" fill-opacity="0.87"/>
<path opacity="0.4" d="M20 8.57115C20 9.35999 19.3603 9.99972 18.6116 9.99972H1.38839C0.639732 9.99972 0 9.36133 0 8.57115C0 7.78097 0.639732 7.14258 1.38839 7.14258H18.5312C19.3616 7.14258 20 7.78097 20 8.57115Z" fill="black" fill-opacity="0.87"/>
</svg>
