<svg width="22" height="18" viewBox="0 0 22 18" fill="none" xmlns="http://www.w3.org/2000/svg">
<path fill-rule="evenodd" clip-rule="evenodd" d="M1.95781 0H20C20.8297 0 21.5 0.670313 21.5 1.5C21.5 2.32969 20.8297 3 19.9578 3H1.95781C1.17172 3 0.5 2.24391 0.5 1.45781C0.5 0.671719 1.17172 0 1.95781 0ZM1.95781 15H20C20.8297 15 21.5 15.6703 21.5 16.5C21.5 17.3297 20.8297 18 19.9578 18H1.95781C1.17172 18 0.5 17.2453 0.5 16.4578C0.5 15.6703 1.17172 15 1.95781 15Z" fill="black" fill-opacity="0.6"/>
<path d="M12.5 9C12.5 9.82828 12.1162 10.5 11.667 10.5H1.33304C0.883839 10.5 0.5 9.82969 0.5 9C0.5 8.17031 0.883839 7.5 1.33304 7.5H11.6188C12.117 7.5 12.5 8.17031 12.5 9Z" fill="black" fill-opacity="0.6"/>
</svg>
