<svg width="32" height="32" viewBox="0 0 32 32" fill="none" xmlns="http://www.w3.org/2000/svg">
<path d="M23.2375 13.2375L15.2375 21.2375C14.8938 21.5813 14.45 21.75 14 21.75C13.55 21.75 13.1038 21.5801 12.7619 21.2383L8.76189 17.2383C8.08002 16.5545 8.08002 15.4451 8.76189 14.7614C9.44564 14.0776 10.555 14.0776 11.2388 14.7614L14 17.525L20.7625 10.7625C21.4463 10.0788 22.5556 10.0788 23.2394 10.7625C23.9188 11.4438 23.9188 12.5563 23.2375 13.2375Z" fill="#008A45"/>
<path opacity="0.4" fill-rule="evenodd" clip-rule="evenodd" d="M0 16C0 7.1625 7.1625 0 16 0C24.8375 0 32 7.1625 32 16C32 24.8375 24.8375 32 16 32C7.1625 32 0 24.8375 0 16ZM15.2375 21.2375L23.2375 13.2375C23.9188 12.5563 23.9188 11.4438 23.2394 10.7625C22.5556 10.0788 21.4463 10.0788 20.7625 10.7625L14 17.525L11.2387 14.7614C10.555 14.0776 9.44562 14.0776 8.76187 14.7614C8.08 15.4451 8.08 16.5545 8.76187 17.2383L12.7619 21.2382C13.1037 21.5801 13.55 21.75 14 21.75C14.45 21.75 14.8938 21.5812 15.2375 21.2375Z" fill="#008A45"/>
</svg>
