<svg width="16" height="20" viewBox="0 0 16 20" fill="none" xmlns="http://www.w3.org/2000/svg">
<path d="M9.87135 7.4502C9.87135 8.48373 9.03354 9.32155 8.00001 9.32155C6.96648 9.32155 6.12866 8.51843 6.12866 7.4502C6.12866 6.38198 6.96687 5.57886 8.00001 5.57886C9.03315 5.57886 9.87135 6.45215 9.87135 7.4502Z" fill="black" fill-opacity="0.6"/>
<path opacity="0.4" fill-rule="evenodd" clip-rule="evenodd" d="M0.514648 7.48538C0.514648 3.35166 3.86631 0 8.00003 0C12.1326 0 15.4854 3.35166 15.4854 7.48538C15.4854 9.96268 14.776 10.9738 11.3884 15.8016C10.6497 16.8544 9.78353 18.0888 8.76962 19.5595C8.39808 20.0963 7.60358 20.0963 7.232 19.5595C6.22167 18.0949 5.35807 16.8647 4.621 15.8147C1.22456 10.9764 0.514648 9.96517 0.514648 7.48538ZM4.88112 7.45029C4.88112 9.17037 6.27956 10.5692 8.00003 10.5692C9.71933 10.5692 11.1189 9.17037 11.1189 7.45029C11.1189 5.73021 9.71933 4.33138 8.00003 4.33138C6.28073 4.33138 4.88112 5.73021 4.88112 7.45029Z" fill="black" fill-opacity="0.6"/>
</svg>
