<svg width="20" height="20" viewBox="0 0 20 20" fill="none" xmlns="http://www.w3.org/2000/svg">
<path fill-rule="evenodd" clip-rule="evenodd" d="M10.0156 0H9.98438C9.26406 0 8.30625 0.716016 7.61484 1.25H12.3883C11.6953 0.716016 10.7383 0 10.0156 0ZM19.4644 6.5293C19.9137 6.99062 19.8766 7.76953 19.3711 8.16797C19.3711 8.17188 17.5 9.625 17.5 9.625V5.00391C18.3482 5.63436 18.7854 5.97702 19.2502 6.34141L19.2504 6.34158L19.2505 6.34164L19.2506 6.34173L19.2506 6.34177L19.2814 6.36586C19.3467 6.41637 19.4077 6.47102 19.4644 6.5293ZM10 16.2539C10.6445 16.2539 11.293 16.0391 11.8437 15.6094L20 9.26562V18.1602C20 19.1605 19.1605 20 18.125 20H1.875C0.839453 20 0 19.1602 0 18.125V9.26562L8.15781 15.6117C8.70859 16.0407 9.35547 16.2539 10 16.2539ZM2.5 9.625L0.632031 8.17188C0.126563 7.77344 0.0855859 6.95703 0.534766 6.53125C0.591406 6.47266 0.652344 6.41797 0.717969 6.36719C1.19375 5.99219 1.63281 5.64844 2.5 5.00391V9.625ZM6.875 8.71484H13.125C13.4702 8.71484 13.75 8.435 13.75 8.08984C13.75 7.74461 13.4702 7.5 13.125 7.5H6.875C6.52984 7.5 6.25 7.77977 6.25 8.08984C6.25 8.46875 6.53125 8.71484 6.875 8.71484ZM13.125 6.21484H6.875C6.53125 6.21484 6.25 5.96875 6.25 5.625C6.25 5.31492 6.52984 5.03516 6.875 5.03516H13.125C13.4702 5.03516 13.75 5.27977 13.75 5.625C13.75 5.935 13.4702 6.21484 13.125 6.21484Z" fill="white"/>
<path opacity="0.4" fill-rule="evenodd" clip-rule="evenodd" d="M16.25 1.25H3.75C3.05977 1.25 2.5 1.80977 2.5 2.46484V9.625L8.92578 14.6211C9.55859 15.1133 10.4441 15.1133 11.0766 14.6211L17.5 9.625V2.5C17.5 1.80977 16.9414 1.25 16.25 1.25ZM13.125 8.71484H6.875C6.52984 8.71484 6.25 8.435 6.25 8.08984C6.25 7.74461 6.52984 7.5 6.875 7.5H13.125C13.4702 7.5 13.75 7.77977 13.75 8.08984C13.75 8.46875 13.4688 8.71484 13.125 8.71484ZM6.875 6.21484H13.125C13.4688 6.21484 13.75 5.96875 13.75 5.625C13.75 5.31492 13.4702 5.03516 13.125 5.03516H6.875C6.52984 5.03516 6.25 5.27977 6.25 5.625C6.25 5.935 6.52984 6.21484 6.875 6.21484Z" fill="white"/>
</svg>
