<svg width="24" height="22" viewBox="0 0 24 22" fill="none" xmlns="http://www.w3.org/2000/svg">
<path fill-rule="evenodd" clip-rule="evenodd" d="M2.25 5.75C3.49219 5.75 4.5 4.74219 4.5 3.5C4.5 2.25781 3.49219 1.25 2.25 1.25C1.00781 1.25 0 2.25781 0 3.5C0 4.74219 1.00781 5.75 2.25 5.75ZM2.25 16.25C1.00781 16.25 0 17.2578 0 18.5C0 19.7422 1.00781 20.75 2.25 20.75C3.49219 20.75 4.5 19.7422 4.5 18.5C4.5 17.2578 3.49219 16.25 2.25 16.25ZM0 11C0 9.75781 1.00781 8.75 2.25 8.75C3.49219 8.75 4.5 9.75781 4.5 11C4.5 12.2422 3.49219 13.25 2.25 13.25C1.00781 13.25 0 12.2422 0 11Z" fill="black" fill-opacity="0.87"/>
<path opacity="0.4" fill-rule="evenodd" clip-rule="evenodd" d="M8.89689 6.125C8.55001 6.125 8.2172 5.98906 7.92657 5.74062L6.1922 3.96406C5.93593 3.70766 5.93593 3.2923 6.1922 3.03594L7.96876 1.25942C8.21486 1.01323 8.54879 0.875 8.89689 0.875H19.6875C20.4122 0.875 21 1.46281 21 2.1875V4.8125C21 5.53906 20.4141 6.125 19.6875 6.125H8.89689ZM22.6875 8.375H8.89689C8.54879 8.375 8.21486 8.51323 7.96876 8.75942L6.1922 10.5359C5.93593 10.7923 5.93593 11.2077 6.1922 11.4641L7.96876 13.2406C8.2172 13.4891 8.55001 13.625 8.89689 13.625H22.6875C23.4141 13.625 24 13.0391 24 12.3125V9.6875C24 8.96094 23.4141 8.375 22.6875 8.375ZM19.6875 15.875H8.89689C8.54879 15.875 8.21486 16.0132 7.96876 16.2594L6.1922 18.036C5.93593 18.2923 5.93593 18.7077 6.1922 18.9641L7.96876 20.7407C8.2172 20.9891 8.55001 21.125 8.89689 21.125H19.6875C20.4122 21.125 21 20.5372 21 19.8125V17.1875C21 16.4609 20.4141 15.875 19.6875 15.875Z" fill="black" fill-opacity="0.87"/>
</svg>
