<svg width="32" height="32" viewBox="0 0 32 32" fill="none" xmlns="http://www.w3.org/2000/svg">
<rect width="32" height="32" rx="16" fill="#EDEFF2"/>
<path d="M23.9523 22.1104L20.0558 18.2139C19.5666 18.9398 18.9406 19.5661 18.2144 20.0553L22.1108 23.9518C22.6193 24.4603 23.4438 24.4603 23.9523 23.9518C24.4601 23.445 24.4601 22.6182 23.9523 22.1104Z" fill="black" fill-opacity="0.6"/>
<path opacity="0.4" fill-rule="evenodd" clip-rule="evenodd" d="M7.66675 14.4378C7.66675 10.6986 10.698 7.66699 14.4083 7.66699C18.1778 7.66699 21.1791 10.6986 21.1791 14.4378C21.1791 18.1771 18.1186 21.2087 14.4083 21.2087C10.698 21.2087 7.66675 18.1771 7.66675 14.4378ZM10.2418 14.4378C10.2418 16.7353 12.1109 18.6045 14.4084 18.6045C16.7359 18.6045 18.5751 16.736 18.5751 14.4378C18.5751 12.1403 16.7059 10.2712 14.4084 10.2712C12.1109 10.2712 10.2418 12.1403 10.2418 14.4378Z" fill="black" fill-opacity="0.6"/>
</svg>
