<svg width="89" height="88" viewBox="0 0 89 88" fill="none" xmlns="http://www.w3.org/2000/svg">
<path d="M87.1422 7.04167L54.4859 39.6979C55.1906 41.0265 55.5 42.4703 55.5 44C55.5 50.0757 50.5758 55 44.5 55C38.4242 55 33.5 50.0671 33.5 44C33.5 37.9242 38.4242 33 44.5 33C46.0244 33 47.4752 33.3112 48.7952 33.8717L81.4514 1.21545C83.0627 -0.395874 85.6727 -0.395874 87.2848 1.21545C88.897 2.82678 88.8953 5.42949 87.1422 7.04167Z" fill="#6F3289"/>
<path fill-rule="evenodd" clip-rule="evenodd" d="M50.9453 76.3641C66.0669 73.3563 77.5 59.9895 77.5 44H88.5C88.5 68.3031 68.8031 88 44.5 88C20.1969 88 0.5 68.3031 0.5 44C0.5 19.6969 20.1969 0 44.5 0C55.1562 0 64.8844 3.84656 72.5019 10.1664L64.6781 17.9902C59.0939 13.6366 52.1141 11 44.5 11C28.0172 11 14.36 23.1516 11.9245 38.9692C9.28453 39.9283 7.375 42.4033 7.375 45.375C7.375 48.5547 9.56984 51.0984 12.4917 51.8994C15.6886 64.2314 25.5095 73.8616 38.0495 76.3572C38.9502 79.1072 41.4578 81.125 44.5 81.125C47.5422 81.125 50.0516 79.1141 50.9453 76.3641ZM38.6562 70.8469C28.5689 68.6469 20.63 60.9056 18.0141 50.9781C19.8359 49.7406 21.125 47.7469 21.125 45.375C21.125 42.7625 19.6125 40.5625 17.4641 39.4109C19.6641 26.4172 30.8875 16.5 44.5 16.5C50.6016 16.5 56.2047 18.5281 60.7542 21.9123L52.8016 29.865C50.3558 28.409 47.5508 27.5 44.5 27.5C35.4027 27.5 28 34.9009 28 44C28 53.0991 35.4027 60.5 44.5 60.5C53.5991 60.5 61 53.0991 61 44H72C72 57.1828 62.7187 68.1656 50.3455 70.8469C49.1527 68.8095 47.0266 67.375 44.5 67.375C41.9734 67.375 39.8422 68.8016 38.6562 70.8469Z" fill="#E34B31"/>
</svg>
