<svg width="20" height="20" viewBox="0 0 20 20" fill="none" xmlns="http://www.w3.org/2000/svg">
<path fill-rule="evenodd" clip-rule="evenodd" d="M18.6656 14.0048C18.7267 14.3305 18.7267 14.668 18.6656 14.9936L19.264 15.3164C19.3338 15.3542 19.3657 15.4356 19.3425 15.5141C19.1856 16.0144 18.9181 16.4707 18.569 16.8488C18.5167 16.907 18.4266 16.9216 18.3597 16.8808L17.7606 16.5349C17.5078 16.7502 17.2169 16.9188 16.9028 17.0293V17.7243C16.9028 17.8028 16.8446 17.8726 16.769 17.8871C16.2746 18.0005 15.7484 18.0035 15.2278 17.8871C15.1522 17.8726 15.0969 17.8028 15.0969 17.7243V17.0293C14.7828 16.9187 14.492 16.7501 14.2391 16.5349L13.6372 16.8808C13.5675 16.9216 13.4831 16.907 13.4279 16.8488C13.0789 16.4679 12.8114 16.0144 12.6573 15.5141C12.634 15.4356 12.6631 15.3542 12.7329 15.3164L13.332 14.9673C13.2739 14.6414 13.2739 14.3042 13.332 13.9786L12.7329 13.6295C12.666 13.5917 12.634 13.5103 12.6573 13.4318C12.8114 12.9318 13.0789 12.4753 13.4279 12.0971C13.4831 12.039 13.5704 12.0244 13.6372 12.0652L14.2391 12.4111C14.4919 12.1958 14.7828 12.0273 15.0969 11.9167V11.2217C15.0969 11.1717 15.1531 11.0998 15.2285 11.0588C15.7229 10.9454 16.2523 10.9425 16.7698 11.0588C16.8454 11.0734 16.9035 11.1432 16.9035 11.2217V11.943C17.2176 12.0536 17.5084 12.2222 17.7614 12.4374L18.3604 12.0914C18.4302 12.0507 18.5175 12.0653 18.5698 12.1234C18.9185 12.5012 19.1862 12.9578 19.3432 13.4581C19.3665 13.5366 19.3345 13.618 19.2647 13.6558L18.6656 14.0048ZM15 14.4998C15 15.052 15.4478 15.4998 16 15.4998C16.5531 15.4998 17 15.053 17 14.4998C17 13.9477 16.5522 13.4998 16 13.4998C15.4478 13.4998 15 13.9477 15 14.4998Z" fill="white"/>
<path opacity="0.4" fill-rule="evenodd" clip-rule="evenodd" d="M6.5 4.5C6.5 5.88062 5.38062 7 4 7C2.61937 7 1.5 5.88062 1.5 4.5C1.5 3.11937 2.61937 2 4 2C5.38125 2 6.5 3.11937 6.5 4.5ZM5.77996 8.38405C5.76341 8.50454 5.74688 8.62502 5.74688 8.75C5.74688 9.80312 6.14688 10.7562 6.785 11.5H0.550625C0.246469 11.5 0 11.2375 0 10.9156C0 9.30625 1.2325 8 2.7525 8H4.68438C5.08125 8 5.45625 8.06562 5.79716 8.25281C5.79195 8.29669 5.78596 8.34034 5.77996 8.384L5.77996 8.38401L5.77996 8.38402L5.77996 8.38404L5.77996 8.38405ZM11.5 14.5C11.5 13.9784 11.6062 13.4856 11.7693 13.02C11.7386 13.0181 11.709 13.0143 11.6797 13.0104C11.64 13.0052 11.6007 13 11.5594 13H8.44063C5.9875 13 4 14.8656 4 17.1656C4 17.6281 4.39687 18 4.8875 18H13.2031C12.1719 17.175 11.5 15.9219 11.5 14.5ZM15.3144 8H17.2469C18.7687 8 20 9.30625 20 10.9156C20 11.2375 19.7531 11.5 19.4486 11.5H19.3312C18.5084 10.5856 17.3275 10 16 10C15.1906 10 14.4437 10.2312 13.7859 10.6044C14.068 10.0431 14.2437 9.42094 14.2437 8.75C14.2437 8.62992 14.2279 8.51458 14.212 8.39881C14.2056 8.35189 14.1992 8.3049 14.1937 8.2575C14.5369 8.09491 14.9144 8 15.3144 8ZM16 7C17.3806 7 18.5 5.88062 18.5 4.5C18.5 3.11937 17.3813 2 16 2C14.6194 2 13.5 3.11937 13.5 4.5C13.5 5.88062 14.6188 7 16 7ZM6.775 8.75C6.775 6.955 8.20281 5.5 9.99687 5.5C11.7906 5.5 13.2437 6.95625 13.2188 8.75C13.2188 10.545 11.7909 12 9.99687 12C8.22969 12 6.775 10.545 6.775 8.75Z" fill="white"/>
</svg>
