<svg width="32" height="32" viewBox="0 0 32 32" fill="none" xmlns="http://www.w3.org/2000/svg">
<rect width="32" height="32" rx="16" fill="#EDEFF2"/>
<path fill-rule="evenodd" clip-rule="evenodd" d="M8.77778 12.6668H16.5556C16.8611 12.6668 17.1111 12.4168 17.1111 12.1112C17.1111 11.8057 16.8611 11.5557 16.5556 11.5557H8.77778C8.47084 11.5557 8.22223 11.8057 8.22223 12.1112C8.22223 12.4168 8.47084 12.6668 8.77778 12.6668ZM12.1111 18.2223H8.77778C8.47084 18.2223 8.22223 18.4723 8.22223 18.7779C8.22223 19.0834 8.47084 19.3334 8.77778 19.3334H12.1111C12.4167 19.3334 12.6667 19.0834 12.6667 18.7779C12.6667 18.4723 12.4167 18.2223 12.1111 18.2223ZM8.77778 14.889H14.3333C14.6389 14.889 14.8889 15.139 14.8889 15.4446C14.8889 15.7501 14.6389 16.0001 14.3333 16.0001H8.77778C8.47084 16.0001 8.22223 15.7501 8.22223 15.4446C8.22223 15.139 8.47084 14.889 8.77778 14.889ZM21 14.889C18.2396 14.889 16 17.1286 16 19.889C16 22.6494 18.2382 24.889 21 24.889C23.7604 24.889 26 22.6494 26 19.889C26 17.1286 23.7604 14.889 21 14.889ZM20.3517 21.7101C20.4938 21.7101 20.6359 21.6558 20.7445 21.5473L23.3368 18.955C23.5556 18.7675 23.5531 18.3869 23.3365 18.1699C23.1198 17.9529 22.7681 17.9529 22.551 18.1699L20.3517 20.3692L19.4479 19.4657C19.2313 19.2487 18.8795 19.2491 18.6625 19.4657C18.4455 19.6824 18.4455 20.0341 18.6625 20.2512L19.959 21.5473C20.0674 21.6559 20.2097 21.7101 20.3517 21.7101Z" fill="black" fill-opacity="0.6"/>
<path opacity="0.4" fill-rule="evenodd" clip-rule="evenodd" d="M19.3333 9.33355V14.0141C16.7708 14.7433 14.8889 17.0974 14.8889 19.8891C14.8889 21.9342 15.9028 23.7467 17.4502 24.8549C17.3385 24.8722 17.2277 24.8891 17.1111 24.8891H8.22222C6.99479 24.8891 6 23.8943 6 22.6669V9.33355C6 8.10612 6.99479 7.11133 8.22222 7.11133H17.1111C18.3385 7.11133 19.3333 8.10612 19.3333 9.33355ZM8.77778 19.3336H12.1111C12.4167 19.3336 12.6667 19.0836 12.6667 18.778C12.6667 18.4724 12.4167 18.2224 12.1111 18.2224H8.77778C8.47083 18.2224 8.22222 18.4724 8.22222 18.778C8.22222 19.0836 8.47083 19.3336 8.77778 19.3336ZM14.3333 16.0002H8.77778C8.47083 16.0002 8.22222 15.7502 8.22222 15.4447C8.22222 15.1391 8.47083 14.8891 8.77778 14.8891H14.3333C14.6389 14.8891 14.8889 15.1391 14.8889 15.4447C14.8889 15.7502 14.6389 16.0002 14.3333 16.0002ZM8.22222 12.1113C8.22222 12.4169 8.47083 12.6669 8.77778 12.6669H16.5556C16.8611 12.6669 17.1111 12.4169 17.1111 12.1113C17.1111 11.8058 16.8611 11.5558 16.5556 11.5558H8.77778C8.47083 11.5558 8.22222 11.8058 8.22222 12.1113Z" fill="black" fill-opacity="0.6"/>
</svg>
