<svg width="100" height="100" viewBox="0 0 100 100" fill="none" xmlns="http://www.w3.org/2000/svg">
<path fill-rule="evenodd" clip-rule="evenodd" d="M50 69.4443C50 55.6423 61.1979 44.4443 75 44.4443C88.8021 44.4443 100 55.6423 100 69.4443C100 83.2464 88.8021 94.4443 75 94.4443C61.191 94.4443 50 83.2464 50 69.4443ZM73.7222 77.736L86.684 64.7742C87.7778 63.8367 87.7656 61.9339 86.6823 60.8489C85.599 59.7638 83.8403 59.7638 82.7552 60.8489L71.7587 71.8454L67.2396 67.328C66.1562 66.2429 64.3976 66.2447 63.3125 67.328C62.2274 68.4114 62.2274 70.17 63.3125 71.2551L69.7951 77.736C70.3372 78.2787 71.0484 78.5499 71.7587 78.5499C72.4689 78.5499 73.1797 78.2785 73.7222 77.736Z" fill="#E34B31"/>
<path opacity="0.4" fill-rule="evenodd" clip-rule="evenodd" d="M36.1111 33.3335V11.1113H15.1267C12.717 11.1113 10.6128 12.6304 9.85243 14.9099L0.0651042 33.1252C0.0976562 33.1686 0.119358 33.199 0.141059 33.2294C0.16276 33.2598 0.184462 33.2901 0.217014 33.3335H36.1111ZM67.934 14.9099C67.1701 12.6304 65.0694 11.1113 62.6562 11.1113H41.6667V33.3335H77.5694C77.602 33.2901 77.6237 33.2576 77.6454 33.225L77.6455 33.2249C77.6671 33.1924 77.6888 33.1599 77.7214 33.1165L67.934 14.9099ZM8.33333 88.8891C3.7309 88.8891 0 85.1565 0 80.5558V38.8891H75C58.125 38.8891 44.4444 52.5697 44.4444 69.4447C44.4444 76.8231 47.066 83.6113 51.4236 88.8891H8.33333Z" fill="#E34B31"/>
</svg>
