<svg width="328" height="32" viewBox="0 0 328 32" fill="none" xmlns="http://www.w3.org/2000/svg">
<rect width="32" height="32" rx="16" fill="#E34B31"/>
<path fill-rule="evenodd" clip-rule="evenodd" d="M8.77778 12.6668H16.5556C16.8611 12.6668 17.1111 12.4168 17.1111 12.1112C17.1111 11.8057 16.8611 11.5557 16.5556 11.5557H8.77778C8.47084 11.5557 8.22223 11.8057 8.22223 12.1112C8.22223 12.4168 8.47084 12.6668 8.77778 12.6668ZM12.1111 18.2223H8.77778C8.47084 18.2223 8.22223 18.4723 8.22223 18.7779C8.22223 19.0834 8.47084 19.3334 8.77778 19.3334H12.1111C12.4167 19.3334 12.6667 19.0834 12.6667 18.7779C12.6667 18.4723 12.4167 18.2223 12.1111 18.2223ZM8.77778 14.889H14.3333C14.6389 14.889 14.8889 15.139 14.8889 15.4446C14.8889 15.7501 14.6389 16.0001 14.3333 16.0001H8.77778C8.47084 16.0001 8.22223 15.7501 8.22223 15.4446C8.22223 15.139 8.47084 14.889 8.77778 14.889ZM21 14.889C18.2396 14.889 16 17.1286 16 19.889C16 22.6494 18.2382 24.889 21 24.889C23.7604 24.889 26 22.6494 26 19.889C26 17.1286 23.7604 14.889 21 14.889ZM20.3517 21.7101C20.4938 21.7101 20.6359 21.6558 20.7445 21.5473L23.3368 18.955C23.5556 18.7675 23.5531 18.3869 23.3365 18.1699C23.1198 17.9529 22.7681 17.9529 22.551 18.1699L20.3517 20.3692L19.4479 19.4657C19.2313 19.2487 18.8795 19.2491 18.6625 19.4657C18.4455 19.6824 18.4455 20.0341 18.6625 20.2512L19.959 21.5473C20.0674 21.6559 20.2097 21.7101 20.3517 21.7101Z" fill="white"/>
<path opacity="0.4" fill-rule="evenodd" clip-rule="evenodd" d="M19.3333 9.33355V14.0141C16.7708 14.7433 14.8889 17.0974 14.8889 19.8891C14.8889 21.9342 15.9028 23.7467 17.4502 24.8549C17.3385 24.8722 17.2277 24.8891 17.1111 24.8891H8.22222C6.99479 24.8891 6 23.8943 6 22.6669V9.33355C6 8.10612 6.99479 7.11133 8.22222 7.11133H17.1111C18.3385 7.11133 19.3333 8.10612 19.3333 9.33355ZM8.77778 19.3336H12.1111C12.4167 19.3336 12.6667 19.0836 12.6667 18.778C12.6667 18.4724 12.4167 18.2224 12.1111 18.2224H8.77778C8.47083 18.2224 8.22222 18.4724 8.22222 18.778C8.22222 19.0836 8.47083 19.3336 8.77778 19.3336ZM14.3333 16.0002H8.77778C8.47083 16.0002 8.22222 15.7502 8.22222 15.4447C8.22222 15.1391 8.47083 14.8891 8.77778 14.8891H14.3333C14.6389 14.8891 14.8889 15.1391 14.8889 15.4447C14.8889 15.7502 14.6389 16.0002 14.3333 16.0002ZM8.22222 12.1113C8.22222 12.4169 8.47083 12.6669 8.77778 12.6669H16.5556C16.8611 12.6669 17.1111 12.4169 17.1111 12.1113C17.1111 11.8058 16.8611 11.5558 16.5556 11.5558H8.77778C8.47083 11.5558 8.22222 11.8058 8.22222 12.1113Z" fill="white"/>
<rect x="32" y="14" width="66.6667" height="4" fill="#EDEFF2"/>
<rect x="98.6667" width="32" height="32" rx="16" fill="#EDEFF2"/>
<path d="M123.417 12.25V22.875C123.417 23.9105 122.577 24.75 121.542 24.75H107.792C106.756 24.75 105.917 23.9102 105.917 22.875V12.25H112.167V16.625C112.167 16.9688 112.448 17.25 112.792 17.25H116.542C116.885 17.25 117.167 16.9688 117.167 16.625L117.132 12.25H123.417Z" fill="black" fill-opacity="0.6"/>
<path opacity="0.4" fill-rule="evenodd" clip-rule="evenodd" d="M109.32 7.25C108.778 7.25 108.305 7.5918 108.133 8.10469L105.931 12.2031C105.939 12.2129 105.944 12.2197 105.948 12.2266C105.953 12.2334 105.958 12.2402 105.965 12.25H112.167V16.625C112.167 17 112.417 17.25 112.792 17.25H116.542C116.917 17.25 117.167 17 117.167 16.625L117.132 12.25H112.167L113.417 7.25H109.32ZM121.202 8.10469C121.03 7.5918 120.557 7.25 120.014 7.25H115.917L117.165 12.25H123.369C123.376 12.2402 123.381 12.2329 123.386 12.2256C123.391 12.2183 123.395 12.2109 123.403 12.2012L121.202 8.10469Z" fill="black" fill-opacity="0.6"/>
<rect x="130.667" y="14" width="66.6667" height="4" fill="#EDEFF2"/>
<rect x="197.333" width="32" height="32" rx="16" fill="#EDEFF2"/>
<path fill-rule="evenodd" clip-rule="evenodd" d="M222.333 19H222.833C223.108 19 223.333 19.225 223.333 19.5V20.5C223.333 20.7749 223.109 21 222.833 21H221.265C220.993 19.3103 219.59 18 217.833 18C216.074 18 214.63 19.3094 214.384 21H212.283C212.04 19.3059 210.595 18 208.833 18C207.274 18 206.014 18.9906 205.539 20.3594C205.368 20.1156 205.266 19.8203 205.266 19.5V16H209.833C210.108 16 210.333 15.775 210.333 15.5C210.333 15.225 210.108 15 209.833 15H205.266V14H210.833C211.108 14 211.333 13.775 211.333 13.5C211.333 13.225 211.108 13 210.833 13H205.266V12H211.833C212.108 12 212.333 11.775 212.333 11.5C212.333 11.225 212.108 11 211.833 11H205.265V9.5C205.265 8.67187 205.936 8 206.765 8H214.833C215.661 8 216.333 8.67187 216.333 9.5V11H217.921C218.446 11 218.961 11.2125 219.333 11.5875L221.748 14.0019C222.125 14.3797 222.333 14.8816 222.333 15.4156V19ZM216.333 16H220.333V15.4156L217.919 13H216.333V16Z" fill="black" fill-opacity="0.6"/>
<path opacity="0.4" fill-rule="evenodd" clip-rule="evenodd" d="M203.833 11H211.833C212.108 11 212.333 11.225 212.333 11.5C212.333 11.775 212.108 12 211.805 12H203.805C203.557 12 203.333 11.7188 203.333 11.4719C203.333 11.225 203.557 11 203.833 11ZM204.833 13H210.833C211.108 13 211.333 13.225 211.333 13.5C211.333 13.775 211.108 14 210.805 14H204.805C204.557 14 204.333 13.775 204.333 13.5C204.333 13.225 204.557 13 204.833 13ZM208.833 19C207.452 19 206.333 20.1187 206.333 21.5C206.333 22.8813 207.452 24 208.833 24C210.215 24 211.333 22.8813 211.333 21.5C211.333 20.1187 210.215 19 208.833 19ZM217.833 19C216.453 19 215.333 20.1194 215.333 21.5C215.333 22.8806 216.453 24 217.833 24C219.214 24 220.333 22.8806 220.333 21.5C220.333 20.1187 219.215 19 217.833 19ZM210.333 15.5C210.333 15.225 210.108 15 209.833 15H203.833C203.557 15 203.333 15.225 203.333 15.5C203.333 15.775 203.557 16 203.805 16H209.805C210.108 16 210.333 15.775 210.333 15.5Z" fill="black" fill-opacity="0.6"/>
<rect x="229.333" y="14" width="66.6667" height="4" fill="#EDEFF2"/>
<rect x="296" width="32" height="32" rx="16" fill="#EDEFF2"/>
<path d="M318.358 15.3389C318.238 15.3542 318.116 15.3634 317.987 15.3634C317.189 15.3634 316.479 15.0147 315.99 14.4758C315.505 15.0141 314.794 15.3634 313.995 15.3634C313.197 15.3634 312.485 15.0147 311.998 14.4758C311.51 15.0141 310.802 15.3634 309.999 15.3634C309.201 15.3634 308.49 15.0147 308.003 14.4758C307.518 15.0141 306.807 15.3634 306.006 15.3634C305.882 15.3634 305.756 15.3547 305.635 15.3387C303.94 15.1121 303.138 13.1145 304.044 11.6806L305.8 8.90229C305.957 8.65258 306.236 8.5 306.534 8.5H317.465C317.763 8.5 318.042 8.65252 318.199 8.90229L319.955 11.6806C320.864 13.1176 320.058 15.1121 318.358 15.3389Z" fill="black" fill-opacity="0.6"/>
<path opacity="0.4" d="M318.863 15.2044L318.866 22.717C318.866 23.5292 318.208 24.1877 317.423 24.1877H306.608C305.795 24.1877 305.165 23.5292 305.165 22.717L305.138 15.2044C305.296 15.2648 305.456 15.3148 305.635 15.3388C305.756 15.3545 305.882 15.3637 306.006 15.3637C306.396 15.3637 306.763 15.2783 307.095 15.131V20.2659H316.902V15.1309C317.233 15.2779 317.601 15.3637 317.987 15.3637C318.114 15.3637 318.235 15.3553 318.357 15.3394C318.541 15.3147 318.704 15.2657 318.863 15.2044Z" fill="black" fill-opacity="0.6"/>
</svg>
