<svg width="101" height="100" viewBox="0 0 101 100" fill="none" xmlns="http://www.w3.org/2000/svg">
<path fill-rule="evenodd" clip-rule="evenodd" d="M14.3889 33.3339H53.2777C54.8055 33.3339 56.0555 32.0839 56.0555 30.5561C56.0555 29.0283 54.8055 27.7783 53.2777 27.7783H14.3889C12.8541 27.7783 11.6111 29.0283 11.6111 30.5561C11.6111 32.0839 12.8541 33.3339 14.3889 33.3339ZM31.0555 61.1117H14.3889C12.8541 61.1117 11.6111 62.3617 11.6111 63.8894C11.6111 65.4172 12.8541 66.6672 14.3889 66.6672H31.0555C32.5833 66.6672 33.8333 65.4172 33.8333 63.8894C33.8333 62.3617 32.5833 61.1117 31.0555 61.1117ZM14.3889 44.445H42.1666C43.6944 44.445 44.9444 45.695 44.9444 47.2228C44.9444 48.7505 43.6944 50.0005 42.1666 50.0005H14.3889C12.8541 50.0005 11.6111 48.7505 11.6111 47.2228C11.6111 45.695 12.8541 44.445 14.3889 44.445ZM75.5 44.445C61.6979 44.445 50.5 55.6429 50.5 69.445C50.5 83.2471 61.6909 94.445 75.5 94.445C89.3021 94.445 100.5 83.2471 100.5 69.445C100.5 55.6429 89.3021 44.445 75.5 44.445ZM72.2587 78.5505C72.9689 78.5505 73.6797 78.2792 74.2222 77.7367L87.184 64.7748C88.2777 63.8373 88.2656 61.9346 87.1823 60.8495C86.0989 59.7644 84.3402 59.7644 83.2552 60.8495L72.2587 71.846L67.7396 67.3287C66.6562 66.2436 64.8975 66.2453 63.8125 67.3287C62.7274 68.412 62.7274 70.1707 63.8125 71.2558L70.2951 77.7367C70.8371 78.2794 71.5484 78.5505 72.2587 78.5505Z" fill="#E34B31"/>
<path opacity="0.4" fill-rule="evenodd" clip-rule="evenodd" d="M67.1667 16.6668V40.0696C54.3542 43.7154 44.9444 55.4862 44.9444 69.4445C44.9444 79.6702 50.0139 88.7327 57.751 94.2735C57.1924 94.36 56.6384 94.4445 56.0556 94.4445H11.6111C5.47396 94.4445 0.5 89.4706 0.5 83.3334V16.6668C0.5 10.5296 5.47396 5.55566 11.6111 5.55566H56.0556C62.1927 5.55566 67.1667 10.5296 67.1667 16.6668ZM14.3889 66.6668H31.0556C32.5833 66.6668 33.8333 65.4168 33.8333 63.889C33.8333 62.3612 32.5833 61.1112 31.0556 61.1112H14.3889C12.8542 61.1112 11.6111 62.3612 11.6111 63.889C11.6111 65.4168 12.8542 66.6668 14.3889 66.6668ZM42.1667 50.0001H14.3889C12.8542 50.0001 11.6111 48.7501 11.6111 47.2223C11.6111 45.6945 12.8542 44.4445 14.3889 44.4445H42.1667C43.6944 44.4445 44.9444 45.6945 44.9444 47.2223C44.9444 48.7501 43.6944 50.0001 42.1667 50.0001ZM11.6111 30.5557C11.6111 32.0834 12.8542 33.3334 14.3889 33.3334H53.2778C54.8056 33.3334 56.0556 32.0834 56.0556 30.5557C56.0556 29.0279 54.8056 27.7779 53.2778 27.7779H14.3889C12.8542 27.7779 11.6111 29.0279 11.6111 30.5557Z" fill="#E34B31"/>
</svg>
