<svg width="20" height="18" viewBox="0 0 20 18" fill="none" xmlns="http://www.w3.org/2000/svg">
<path fill-rule="evenodd" clip-rule="evenodd" d="M1.875 4.625C2.91016 4.625 3.75 3.78516 3.75 2.75C3.75 1.71484 2.91016 0.875 1.875 0.875C0.839844 0.875 0 1.71484 0 2.75C0 3.78516 0.839844 4.625 1.875 4.625ZM1.875 13.375C0.839844 13.375 0 14.2148 0 15.25C0 16.2852 0.839844 17.125 1.875 17.125C2.91016 17.125 3.75 16.2852 3.75 15.25C3.75 14.2148 2.91016 13.375 1.875 13.375ZM0 9C0 7.96484 0.839844 7.125 1.875 7.125C2.91016 7.125 3.75 7.96484 3.75 9C3.75 10.0352 2.91016 10.875 1.875 10.875C0.839844 10.875 0 10.0352 0 9Z" fill="white"/>
<path opacity="0.4" fill-rule="evenodd" clip-rule="evenodd" d="M7.41407 4.9375C7.12501 4.9375 6.84767 4.82422 6.60548 4.61719L5.16017 3.13672C4.94661 2.92305 4.94661 2.57691 5.16017 2.36328L6.64063 0.882852C6.84571 0.677695 7.12399 0.5625 7.41407 0.5625H16.4063C17.0102 0.5625 17.5 1.05234 17.5 1.65625V3.84375C17.5 4.44922 17.0117 4.9375 16.4063 4.9375H7.41407ZM18.9063 6.8125H7.41407C7.12399 6.8125 6.84571 6.9277 6.64063 7.13285L5.16017 8.61328C4.94661 8.82691 4.94661 9.17305 5.16017 9.38672L6.64063 10.8672C6.84767 11.0742 7.12501 11.1875 7.41407 11.1875H18.9063C19.5117 11.1875 20 10.6992 20 10.0938V7.90625C20 7.30078 19.5117 6.8125 18.9063 6.8125ZM16.4063 13.0625H7.41407C7.12399 13.0625 6.84571 13.1777 6.64063 13.3829L5.16017 14.8633C4.94661 15.077 4.94661 15.4231 5.16017 15.6368L6.64063 17.1172C6.84767 17.3242 7.12501 17.4375 7.41407 17.4375H16.4063C17.0102 17.4375 17.5 16.9477 17.5 16.3438V14.1562C17.5 13.5508 17.0117 13.0625 16.4063 13.0625Z" fill="white"/>
</svg>
