<svg width="18" height="14" viewBox="0 0 18 14" fill="none" xmlns="http://www.w3.org/2000/svg">
<path d="M17.75 2C17.75 2.31984 17.6279 2.63984 17.3838 2.88359L7.38379 12.8836C7.14062 13.1289 6.82031 13.25 6.5 13.25C6.17969 13.25 5.86016 13.1279 5.61641 12.8838L0.616406 7.88379C0.372266 7.64062 0.25 7.32031 0.25 7C0.25 6.28594 0.833984 5.75 1.5 5.75C1.81984 5.75 2.13984 5.87207 2.38359 6.11621L6.5 10.2344L15.6172 1.11719C15.8594 0.872266 16.1797 0.75 16.5 0.75C17.168 0.75 17.75 1.28516 17.75 2Z" fill="black" fill-opacity="0.38"/>
</svg>
