<svg width="32" height="32" viewBox="0 0 32 32" fill="none" xmlns="http://www.w3.org/2000/svg">
<rect width="32" height="32" rx="16" fill="#FFEBEE"/>
<path d="M21 21C20.3098 21 19.75 20.441 19.75 19.75V12.25H12.25C11.5598 12.25 11 11.6914 11 11C11 10.3086 11.5598 9.75 12.25 9.75H21C21.6902 9.75 22.25 10.309 22.25 11V19.75C22.25 20.4414 21.6914 21 21 21Z" fill="#E53451"/>
<path opacity="0.4" d="M19.75 14.0195L11.8829 21.8867C11.6399 22.1289 11.32 22.25 11 22.25C10.6801 22.25 10.3602 22.1279 10.1165 21.8838C9.62817 21.3955 9.62817 20.6045 10.1165 20.1162L17.9844 12.25H19.75V14.0195Z" fill="#E53451"/>
</svg>
