<svg width="32" height="32" viewBox="0 0 32 32" fill="none" xmlns="http://www.w3.org/2000/svg">
<rect width="32" height="32" rx="16" fill="#DFF1E8"/>
<path d="M19.75 22.25H11C10.3098 22.25 9.75 21.691 9.75 21V12.25C9.75 11.559 10.3098 11 11 11C11.6902 11 12.25 11.559 12.25 12.25V19.75H19.75C20.4402 19.75 21 20.309 21 21C21 21.691 20.4414 22.25 19.75 22.25Z" fill="#008A45"/>
<path opacity="0.4" d="M21.8828 11.8828L14.0195 19.75H12.25V17.9844L20.1172 10.1172C20.6055 9.62891 21.3965 9.62891 21.8848 10.1172C22.373 10.6055 22.3711 11.3945 21.8828 11.8828Z" fill="#008A45"/>
</svg>
