<svg width="36" height="48" viewBox="0 0 36 48" fill="none" xmlns="http://www.w3.org/2000/svg">
<path fill-rule="evenodd" clip-rule="evenodd" d="M13.8 26.9156C12.6938 26.9156 11.6719 26.3906 11.0719 25.4156L9 21.3844V28.725L13.125 32.2594C14.1938 33.1782 14.9062 34.4438 15.1416 35.6672L16.4653 44.3391C16.7344 45.9685 15.6328 47.5149 13.9922 47.7844C11.4956 48.1941 10.6406 45.8508 10.5469 45.3235L9.22313 36.6516L2.09812 30.5456C0.773438 29.3981 0 27.7453 0 25.9875V16.4156C0 13.9303 2.01469 11.9156 4.5 11.9156H7.19531C9.42188 11.9156 11.4656 13.2281 12.4969 15.2063L15.6187 21H18V26.9156H13.8ZM3 47.9063C1.33594 47.9063 0 46.6547 0 44.9907V32.7544C0.0172253 32.7683 0.419443 33.1157 1.016 33.631C2.43245 34.8545 4.94452 37.0244 6 37.9228V44.911C6 46.575 4.66406 47.9063 3 47.9063Z" fill="#E34B31"/>
<path opacity="0.4" fill-rule="evenodd" clip-rule="evenodd" d="M3 4.41563C3 2.01562 5.01562 0 7.5 0C9.98438 0 12 2.0156 12 4.4156C12 6.98435 9.98438 8.9156 7.5 8.9156C5.01562 8.9156 3 6.98435 3 4.41563ZM21 8.9156H33C34.65 8.9156 36 10.35 36 11.9156V23.8314C36 25.4814 34.65 26.8314 33 26.8314L18 26.8312V11.9156C18 10.2656 19.35 8.9156 21 8.9156Z" fill="#E34B31"/>
</svg>
