<svg width="33" height="32" viewBox="0 0 33 32" fill="none" xmlns="http://www.w3.org/2000/svg">
<rect x="0.666664" width="32" height="32" rx="16" fill="#E34B31"/>
<path d="M25.4167 12.25V22.875C25.4167 23.9105 24.5772 24.75 23.5417 24.75H9.79166C8.75612 24.75 7.91666 23.9102 7.91666 22.875V12.25H14.1667V16.625C14.1667 16.9688 14.4479 17.25 14.7917 17.25H18.5417C18.8854 17.25 19.1667 16.9688 19.1667 16.625L19.1315 12.25H25.4167Z" fill="white"/>
<path opacity="0.4" fill-rule="evenodd" clip-rule="evenodd" d="M11.3202 7.25C10.778 7.25 10.3046 7.5918 10.1335 8.10469L7.93131 12.2031C7.93864 12.2129 7.94352 12.2197 7.9484 12.2266C7.95329 12.2334 7.95817 12.2402 7.96549 12.25H14.1667V16.625C14.1667 17 14.4167 17.25 14.7917 17.25H18.5417C18.9167 17.25 19.1667 17 19.1667 16.625L19.1315 12.25H14.1667L15.4167 7.25H11.3202ZM23.2018 8.10469C23.0299 7.5918 22.5573 7.25 22.0143 7.25H17.9167L19.1655 12.25H25.3686C25.3759 12.2402 25.3808 12.2329 25.3857 12.2256C25.3906 12.2183 25.3955 12.2109 25.4028 12.2012L23.2018 8.10469Z" fill="white"/>
</svg>
