<svg width="32" height="32" viewBox="0 0 32 32" fill="none" xmlns="http://www.w3.org/2000/svg">
<rect width="32" height="32" rx="16" fill="#F4D9D3"/>
<path d="M23.0742 16.9419L13.1094 25.6567C12.8398 25.895 12.543 26.0005 12.25 26.0005C11.9925 26.0005 11.7348 25.9217 11.5152 25.7618C11.043 25.4188 10.8707 24.7947 11.1016 24.2579L14.1055 17.2505H9.7504C9.2293 17.2505 8.7629 16.9276 8.57969 16.4399C8.39661 15.9528 8.53575 15.4028 8.92758 15.0599L18.8924 6.34501C19.3319 5.95868 19.9788 5.93173 20.4498 6.27474C20.9221 6.61774 21.0944 7.24192 20.8635 7.77864L17.8604 14.7865L22.2159 14.7862C22.737 14.7862 23.2034 15.109 23.3866 15.5967C23.6016 16.0474 23.4648 16.5981 23.0742 16.9419Z" fill="#E34B31"/>
</svg>
