<svg width="18" height="18" viewBox="0 0 18 18" fill="none" xmlns="http://www.w3.org/2000/svg">
<path fill-rule="evenodd" clip-rule="evenodd" d="M1.34375 0.25C0.739844 0.25 0.25 0.739844 0.25 1.34375V8.64063C0.25 9.14063 0.53832 9.83594 0.890984 10.1874L7.81286 17.1093C8.66677 17.9637 10.0519 17.9637 10.9062 17.1094L17.1093 10.9063C17.9637 10.052 17.9637 8.6668 17.1094 7.8125L10.1875 0.890625C9.83516 0.53832 9.13906 0.25 8.64062 0.25H1.34375ZM4.625 5.875C3.93477 5.875 3.375 5.31563 3.375 4.625C3.375 3.93359 3.93477 3.375 4.625 3.375C5.31523 3.375 5.875 3.93438 5.875 4.625C5.875 5.31563 5.31523 5.875 4.625 5.875Z" fill="white"/>
</svg>
