<svg width="24" height="24" viewBox="0 0 24 24" fill="none" xmlns="http://www.w3.org/2000/svg">
<path d="M17.4281 9.92836L11.4281 15.9284C11.1703 16.1862 10.8375 16.3127 10.5 16.3127C10.1625 16.3127 9.82781 16.1853 9.57141 15.9289L6.57141 12.9289C6.06 12.4161 6.06 11.5841 6.57141 11.0713C7.08422 10.5585 7.91625 10.5585 8.42906 11.0713L10.5 13.144L15.5719 8.07211C16.0847 7.5593 16.9167 7.5593 17.4295 8.07211C17.9391 8.58305 17.9391 9.41742 17.4281 9.92836Z" fill="#008A45"/>
<path opacity="0.2" fill-rule="evenodd" clip-rule="evenodd" d="M0 12C0 5.37187 5.37187 0 12 0C18.6281 0 24 5.37187 24 12C24 18.6281 18.6281 24 12 24C5.37187 24 0 18.6281 0 12ZM11.4281 15.9281L17.4281 9.92813C17.9391 9.41719 17.9391 8.58281 17.4295 8.07188C16.9167 7.55906 16.0847 7.55906 15.5719 8.07188L10.5 13.1438L8.42906 11.071C7.91625 10.5582 7.08422 10.5582 6.57141 11.071C6.06 11.5838 6.06 12.4159 6.57141 12.9287L9.57141 15.9287C9.82781 16.185 10.1625 16.3125 10.5 16.3125C10.8375 16.3125 11.1703 16.1859 11.4281 15.9281Z" fill="#008A45"/>
</svg>
