<svg width="16" height="16" viewBox="0 0 16 16" fill="none" xmlns="http://www.w3.org/2000/svg">
<path d="M11 8C11 9.65469 9.65469 11 8 11C6.34531 11 5 9.62813 5 8C5 6.37188 6.34531 5 8 5C9.65469 5 11 6.34688 11 8Z" fill="#E34B31"/>
<path opacity="0.4" fill-rule="evenodd" clip-rule="evenodd" d="M0 8C0 3.58125 3.58125 0 8 0C12.4188 0 16 3.58125 16 8C16 12.4188 12.4188 16 8 16C3.58125 16 0 12.4188 0 8ZM8 11C9.65469 11 11 9.65469 11 8C11 6.34688 9.65469 5 8 5C6.34531 5 5 6.37187 5 8C5 9.62813 6.34531 11 8 11Z" fill="#E34B31"/>
</svg>
