<svg width="32" height="32" viewBox="0 0 32 32" fill="none" xmlns="http://www.w3.org/2000/svg">
<rect width="32" height="32" rx="16" fill="#EDEFF2"/>
<path d="M23.2049 14.8783C23.0695 14.8956 22.9306 14.9061 22.7848 14.9061C21.8802 14.9061 21.0761 14.5109 20.5212 13.9002C19.9723 14.5102 19.1667 14.9061 18.2605 14.9061C17.3559 14.9061 16.55 14.5109 15.998 13.9002C15.4445 14.5102 14.6424 14.9061 13.7327 14.9061C12.8278 14.9061 12.0223 14.5109 11.4702 13.9002C10.9202 14.5102 10.1146 14.9061 9.20698 14.9061C9.06611 14.9061 8.924 14.8962 8.78615 14.8781C6.86531 14.6213 5.95643 12.3574 6.98372 10.7324L8.974 7.58383C9.15125 7.30085 9.4674 7.12793 9.8049 7.12793H22.1938C22.5311 7.12793 22.8473 7.30078 23.0247 7.58383L25.015 10.7324C26.0452 12.3609 25.132 14.6213 23.2049 14.8783Z" fill="#545D78"/>
<path opacity="0.4" d="M23.7778 14.7259L23.7813 23.2398C23.7813 24.1603 23.0351 24.9065 22.1458 24.9065H9.88889C8.96841 24.9065 8.25347 24.1603 8.25347 23.2398L8.22327 14.7259C8.40184 14.7943 8.58403 14.8511 8.78611 14.8783C8.92396 14.8961 9.06597 14.9065 9.20695 14.9065C9.64931 14.9065 10.0653 14.8097 10.4413 14.6428V20.462H21.5556V14.6426C21.9306 14.8092 22.3472 14.9065 22.7847 14.9065C22.9285 14.9065 23.0664 14.897 23.2045 14.8789C23.4132 14.8509 23.5972 14.7954 23.7778 14.7259Z" fill="#545D78"/>
</svg>
