<svg width="20" height="20" viewBox="0 0 20 20" fill="none" xmlns="http://www.w3.org/2000/svg">
<path d="M16.3577 9.33887C16.2382 9.35419 16.1157 9.36339 15.987 9.36339C15.1889 9.36339 14.4793 9.01472 13.9897 8.47578C13.5053 9.0141 12.7944 9.36339 11.9948 9.36339C11.1966 9.36339 10.4855 9.01472 9.99836 8.47578C9.50998 9.0141 8.80222 9.36339 7.99948 9.36339C7.20104 9.36339 6.49022 9.01472 6.00306 8.47578C5.51775 9.0141 4.80693 9.36339 4.00603 9.36339C3.88173 9.36339 3.75632 9.35466 3.63469 9.33874C1.93975 9.11215 1.13775 7.1145 2.04423 5.68061L3.80044 2.90229C3.95686 2.65258 4.23582 2.5 4.53363 2.5H15.4655C15.7632 2.5 16.0422 2.65252 16.1987 2.90229L17.9549 5.68061C18.864 7.11757 18.0582 9.11215 16.3577 9.33887Z" fill="#6F3289"/>
<path opacity="0.4" d="M16.8633 9.20403L16.8664 16.7166C16.8664 17.5289 16.2079 18.1873 15.4233 18.1873H4.6078C3.79557 18.1873 3.16472 17.5289 3.16472 16.7166L3.13806 9.20403C3.29564 9.26442 3.4564 9.31448 3.63472 9.33847C3.75635 9.35416 3.88166 9.36335 4.00606 9.36335C4.39639 9.36335 4.76345 9.27796 5.09526 9.13068V14.2655H14.9024V9.13049C15.2333 9.27756 15.601 9.36335 15.987 9.36335C16.1139 9.36335 16.2356 9.35497 16.3575 9.33905C16.5416 9.31433 16.704 9.2653 16.8633 9.20403Z" fill="#6F3289"/>
</svg>
