<svg width="32" height="32" viewBox="0 0 32 32" fill="none" xmlns="http://www.w3.org/2000/svg">
<rect width="32" height="32" rx="16" fill="#E9D9F1"/>
<path d="M22.3577 15.3389C22.2382 15.3542 22.1157 15.3634 21.987 15.3634C21.1888 15.3634 20.4792 15.0147 19.9896 14.4758C19.5052 15.0141 18.7944 15.3634 17.9947 15.3634C17.1966 15.3634 16.4855 15.0147 15.9983 14.4758C15.5099 15.0141 14.8022 15.3634 13.9995 15.3634C13.201 15.3634 12.4902 15.0147 12.003 14.4758C11.5177 15.0141 10.8069 15.3634 10.006 15.3634C9.8817 15.3634 9.75629 15.3547 9.63466 15.3387C7.93972 15.1121 7.13772 13.1145 8.0442 11.6806L9.80041 8.90229C9.95682 8.65258 10.2358 8.5 10.5336 8.5H21.4655C21.7632 8.5 22.0421 8.65252 22.1987 8.90229L23.9549 11.6806C24.864 13.1176 24.0582 15.1121 22.3577 15.3389Z" fill="#6F3289"/>
<path opacity="0.4" d="M22.8632 15.2041L22.8663 22.7168C22.8663 23.529 22.2078 24.1874 21.4232 24.1874H10.6077C9.79548 24.1874 9.16463 23.529 9.16463 22.7168L9.13797 15.2041C9.29555 15.2645 9.45631 15.3146 9.63462 15.3386C9.75626 15.3543 9.88157 15.3635 10.006 15.3635C10.3963 15.3635 10.7634 15.2781 11.0952 15.1308V20.2657H20.9023V15.1306C21.2332 15.2777 21.6009 15.3635 21.9869 15.3635C22.1138 15.3635 22.2355 15.3551 22.3574 15.3392C22.5415 15.3144 22.7039 15.2654 22.8632 15.2041Z" fill="#6F3289"/>
</svg>
