<svg width="20" height="26" viewBox="0 0 20 26" fill="none" xmlns="http://www.w3.org/2000/svg">
<rect width="20" height="20" rx="10" fill="#E34B31"/>
<path d="M14.7282 7.7373L10.3011 5.89322C10.2051 5.8581 10.1025 5.83708 9.99999 5.83301C9.89582 5.83708 9.79328 5.85607 9.69888 5.89269L5.2718 7.7373C4.98078 7.85937 4.79166 8.14257 4.79166 8.45833V13.9059C4.79166 14.0504 4.90762 14.1663 5.05207 14.1663L6.09374 14.1663C6.23819 14.1663 6.35416 14.0504 6.35416 13.9059V9.99967C6.35416 9.71289 6.59211 9.49348 6.88524 9.49348H13.1157C13.4082 9.47884 13.6458 9.71321 13.6458 9.99967V13.9059C13.6458 14.0504 13.7618 14.1663 13.9062 14.1663L14.9479 14.1663C15.0924 14.1663 15.2083 14.0504 15.2083 13.9059V8.45833C15.2083 8.14257 15.0195 7.85937 14.7282 7.7373Z" fill="white"/>
<path opacity="0.4" fill-rule="evenodd" clip-rule="evenodd" d="M9.73958 10.5205H7.13541C6.99381 10.5205 6.87499 10.6393 6.87499 10.7809V11.8226C6.87499 11.9658 6.99381 12.083 7.13541 12.083H9.73958C9.88199 12.083 9.99999 11.965 9.99999 11.8226V10.7809C9.99999 10.6393 9.88281 10.5205 9.73958 10.5205ZM9.73949 12.6039H7.13533C6.99372 12.6039 6.87491 12.7227 6.87491 12.8643V13.906C6.87491 14.0492 6.99372 14.1664 7.13533 14.1664H9.73949C9.88191 14.1664 9.99991 14.0484 9.99991 13.906V12.8643C9.99991 12.7227 9.88272 12.6039 9.73949 12.6039ZM10.7813 12.6039H12.8647C13.0079 12.6039 13.1251 12.7227 13.1251 12.8643V13.906C13.1251 14.0484 13.0071 14.1664 12.8647 14.1664H10.7813C10.6389 14.1664 10.5209 14.0484 10.5209 13.906V12.8643C10.5209 12.7219 10.6389 12.6039 10.7813 12.6039Z" fill="white"/>
<circle cx="10" cy="24" r="2" fill="#E34B31"/>
</svg>
