<svg width="32" height="32" viewBox="0 0 32 32" fill="none" xmlns="http://www.w3.org/2000/svg">
<rect width="32" height="32" rx="16" fill="#F4D9D3"/>
<path fill-rule="evenodd" clip-rule="evenodd" d="M21.5556 11.0002C21.5556 10.0797 20.809 9.33355 19.8889 9.33355H18.2222V8.19119C18.2222 7.6089 17.7257 7.11133 17.1111 7.11133C16.4965 7.11133 16 7.6089 16 8.19119V9.33355H11.5556V8.19119C11.5556 7.6089 11.059 7.11133 10.4444 7.11133C9.82986 7.11133 9.33333 7.6089 9.33333 8.19119V9.33355H7.66667C6.74618 9.33355 6 10.0797 6 11.0002V13.778H21.5556V11.0002ZM21 14.8891C18.2396 14.8891 16 17.1287 16 19.8891C16 22.6495 18.2382 24.8891 21 24.8891C23.7604 24.8891 26 22.6495 26 19.8891C26 17.1287 23.7604 14.8891 21 14.8891ZM21 20.4447H22.6667C22.9722 20.4447 23.2222 20.1962 23.2222 19.8891C23.2222 19.582 22.9738 19.3336 22.6667 19.3336H21.5556V17.6947C21.5556 17.3876 21.3071 17.1391 21 17.1391C20.6929 17.1391 20.4444 17.3876 20.4444 17.6947V19.8891C20.4444 20.1962 20.6929 20.4447 21 20.4447Z" fill="#E34B31"/>
<path opacity="0.4" fill-rule="evenodd" clip-rule="evenodd" d="M21 13.7783C17.625 13.7783 14.8889 16.5144 14.8889 19.8894C14.8889 21.9589 15.9201 23.7853 17.4931 24.8894H7.66667C6.74653 24.8894 6 24.1429 6 23.2228V13.7783H21ZM21 13.783H21.5556V13.8502C21.3722 13.8105 21.1876 13.783 21 13.783Z" fill="#E34B31"/>
</svg>
