<svg width="20" height="20" viewBox="0 0 20 20" fill="none" xmlns="http://www.w3.org/2000/svg">
<path d="M17.9523 16.1101L14.0558 12.2136C13.5666 12.9395 12.9406 13.5658 12.2144 14.0551L16.1108 17.9516C16.6193 18.46 17.4438 18.46 17.9523 17.9516C18.4601 17.4447 18.4601 16.6179 17.9523 16.1101Z" fill="black" fill-opacity="0.87"/>
<path fill-rule="evenodd" clip-rule="evenodd" d="M1.66675 8.43758C1.66675 4.69832 4.698 1.66675 8.40829 1.66675C12.1778 1.66675 15.1791 4.69832 15.1791 8.43758C15.1791 12.1768 12.1186 15.2084 8.40829 15.2084C4.698 15.2084 1.66675 12.1768 1.66675 8.43758ZM4.24175 8.43758C4.24175 10.7351 6.11089 12.6042 8.40842 12.6042C10.7359 12.6042 12.5751 10.7358 12.5751 8.43758C12.5751 6.14005 10.7059 4.27091 8.40842 4.27091C6.11089 4.27091 4.24175 6.14005 4.24175 8.43758Z" fill="black" fill-opacity="0.87"/>
</svg>
