<svg width="18" height="18" viewBox="0 0 18 18" fill="none" xmlns="http://www.w3.org/2000/svg">
<path d="M16.9522 15.1101L13.0557 11.2136C12.5664 11.9395 11.9405 12.5658 11.2142 13.0551L15.1107 16.9516C15.6192 17.46 16.4437 17.46 16.9522 16.9516C17.46 16.4447 17.46 15.6179 16.9522 15.1101Z" fill="black" fill-opacity="0.6"/>
<path opacity="0.4" fill-rule="evenodd" clip-rule="evenodd" d="M0.666687 7.43758C0.666687 3.69832 3.69794 0.666748 7.40823 0.666748C11.1778 0.666748 14.1791 3.69832 14.1791 7.43758C14.1791 11.1768 11.1185 14.2084 7.40823 14.2084C3.69794 14.2084 0.666687 11.1768 0.666687 7.43758ZM3.24169 7.43758C3.24169 9.7351 5.11083 11.6042 7.40836 11.6042C9.73583 11.6042 11.575 9.73575 11.575 7.43758C11.575 5.14005 9.70588 3.27091 7.40836 3.27091C5.11083 3.27091 3.24169 5.14005 3.24169 7.43758Z" fill="black" fill-opacity="0.6"/>
</svg>
