<svg width="20" height="20" viewBox="0 0 20 20" fill="none" xmlns="http://www.w3.org/2000/svg">
<path fill-rule="evenodd" clip-rule="evenodd" d="M19.1912 12.4191C19.3901 12.534 19.5116 12.7477 19.5116 12.9688C19.5116 13.6367 17.7851 16.8359 17.0162 16.8372C16.9056 16.8372 16.7939 16.8089 16.6941 16.7512L14.8691 15.6973C14.1769 16.2891 13.3757 16.7532 12.4999 17.0633V19.168C12.4999 19.4609 12.2968 19.6914 11.9757 19.7867C11.3261 19.9228 10.621 20 9.96477 20C9.30852 20 8.64055 19.9219 7.98938 19.7852C7.70156 19.725 7.49992 19.4611 7.49992 19.1672V17.0625C6.62492 16.7539 5.82414 16.2891 5.1309 15.6975L3.3059 16.7514C3.20598 16.8091 3.09441 16.8375 2.98379 16.8375C2.1291 16.8375 0.489258 13.5195 0.489258 12.9688C0.489258 12.7477 0.610781 12.534 0.809687 12.4191L2.63039 11.368C2.54844 10.9238 2.49992 10.4688 2.49992 10C2.49992 9.53125 2.54836 9.07812 2.63051 8.63164L0.809805 7.58047C0.610938 7.46562 0.489375 7.25195 0.489375 7.03086C0.489375 6.36328 2.21359 3.16211 2.98391 3.16211C3.09445 3.16211 3.20617 3.19062 3.30578 3.24844L5.13273 4.30078C5.82414 3.71016 6.62492 3.24609 7.49992 2.93594V0.83125C7.49992 0.5375 7.70305 0.273594 7.98898 0.21332C8.63859 0.0772266 9.30852 0 9.99992 0C10.6913 0 11.3593 0.0772265 12.0105 0.213281C12.2983 0.273437 12.4999 0.537383 12.4999 0.83125V2.93594C13.3749 3.24609 14.1757 3.71016 14.8689 4.30246L16.6939 3.24855C16.7939 3.19088 16.9054 3.1625 17.0161 3.1625C17.8707 3.1625 19.5106 6.48047 19.5106 7.03125C19.5106 7.2523 19.3891 7.46598 19.1902 7.58086L17.3695 8.63203C17.4514 9.07617 17.4999 9.56641 17.4999 10C17.4999 10.4336 17.453 10.9219 17.3705 11.368L19.1912 12.4191ZM6.87492 10C6.87492 11.723 8.27688 13.125 9.99992 13.125C11.7226 13.125 13.1249 11.723 13.1249 10C13.1249 8.27695 11.7226 6.875 9.99992 6.875C8.27727 6.875 6.87492 8.27695 6.87492 10Z" fill="white"/>
<path opacity="0.4" d="M10 11.25C9.3125 11.25 8.75 10.6875 8.75 10C8.75 9.3125 9.31094 8.75 10 8.75C10.6891 8.75 11.25 9.31055 11.25 10C11.25 10.6895 10.6875 11.25 10 11.25Z" fill="white"/>
</svg>
