<svg width="32" height="32" viewBox="0 0 32 32" fill="none" xmlns="http://www.w3.org/2000/svg">
<rect width="32" height="32" rx="16" fill="#E34B31"/>
<path d="M12.9281 20V18.6705L16.0346 15.794C16.2988 15.5384 16.5204 15.3082 16.6994 15.1037C16.8812 14.8991 17.019 14.6989 17.1127 14.5028C17.2065 14.304 17.2534 14.0895 17.2534 13.8594C17.2534 13.6037 17.1951 13.3835 17.0787 13.1989C16.9622 13.0114 16.8031 12.8679 16.6014 12.7685C16.3997 12.6662 16.171 12.6151 15.9153 12.6151C15.6483 12.6151 15.4153 12.669 15.2164 12.777C15.0176 12.8849 14.8642 13.0398 14.7562 13.2415C14.6483 13.4432 14.5943 13.6832 14.5943 13.9616H12.8429C12.8429 13.3906 12.9721 12.8949 13.2306 12.4744C13.4892 12.054 13.8514 11.7287 14.3173 11.4986C14.7832 11.2685 15.3201 11.1534 15.9281 11.1534C16.5531 11.1534 17.0971 11.2642 17.5602 11.4858C18.0261 11.7045 18.3883 12.0085 18.6468 12.3977C18.9054 12.7869 19.0346 13.233 19.0346 13.7358C19.0346 14.0653 18.9693 14.3906 18.8386 14.7116C18.7108 15.0327 18.4821 15.3892 18.1525 15.7812C17.823 16.1705 17.3585 16.6378 16.7591 17.1832L15.4849 18.4318V18.4915H19.1497V20H12.9281Z" fill="white"/>
</svg>
