<svg width="32" height="32" viewBox="0 0 32 32" fill="none" xmlns="http://www.w3.org/2000/svg">
<rect width="32" height="32" rx="16" fill="#EDEFF2"/>
<path d="M15.9782 20.1193C15.3418 20.1193 14.775 20.0099 14.2779 19.7912C13.7836 19.5696 13.3929 19.2656 13.106 18.8793C12.8219 18.4901 12.6756 18.0412 12.6671 17.5327H14.525C14.5364 17.7457 14.606 17.9332 14.7338 18.0952C14.8645 18.2543 15.0378 18.3778 15.2537 18.4659C15.4696 18.554 15.7125 18.598 15.9824 18.598C16.2637 18.598 16.5123 18.5483 16.7282 18.4489C16.9441 18.3494 17.1131 18.2116 17.2353 18.0355C17.3574 17.8594 17.4185 17.6562 17.4185 17.4261C17.4185 17.1932 17.3532 16.9872 17.2225 16.8082C17.0946 16.6264 16.91 16.4844 16.6685 16.3821C16.4299 16.2798 16.1458 16.2287 15.8162 16.2287H15.0023V14.8736H15.8162C16.0946 14.8736 16.3404 14.8253 16.5534 14.7287C16.7694 14.6321 16.937 14.4986 17.0563 14.3281C17.1756 14.1548 17.2353 13.9531 17.2353 13.723C17.2353 13.5043 17.1827 13.3125 17.0776 13.1477C16.9753 12.9801 16.8304 12.8494 16.6429 12.7557C16.4583 12.6619 16.2424 12.6151 15.9952 12.6151C15.7452 12.6151 15.5165 12.6605 15.3091 12.7514C15.1017 12.8395 14.9355 12.9659 14.8105 13.1307C14.6855 13.2955 14.6188 13.4886 14.6103 13.7102H12.8418C12.8503 13.2074 12.9938 12.7642 13.2722 12.3807C13.5506 11.9972 13.9256 11.6974 14.3972 11.4815C14.8716 11.2628 15.4071 11.1534 16.0037 11.1534C16.606 11.1534 17.133 11.2628 17.5847 11.4815C18.0364 11.7003 18.3873 11.9957 18.6373 12.3679C18.8901 12.7372 19.0151 13.152 19.0123 13.6122C19.0151 14.1009 18.8631 14.5085 18.5563 14.8352C18.2523 15.1619 17.856 15.3693 17.3674 15.4574V15.5256C18.0094 15.608 18.498 15.831 18.8333 16.1946C19.1713 16.5554 19.339 17.0071 19.3361 17.5497C19.339 18.0469 19.1955 18.4886 18.9057 18.875C18.6188 19.2614 18.2225 19.5653 17.7168 19.7869C17.2111 20.0085 16.6316 20.1193 15.9782 20.1193Z" fill="#545D78"/>
</svg>
