<svg width="32" height="32" viewBox="0 0 32 32" fill="none" xmlns="http://www.w3.org/2000/svg">
<rect width="32" height="32" rx="16" fill="#E34B31"/>
<path d="M22.3577 15.3389C22.2382 15.3542 22.1156 15.3634 21.9869 15.3634C21.1888 15.3634 20.4792 15.0147 19.9896 14.4758C19.5052 15.0141 18.7944 15.3634 17.9947 15.3634C17.1966 15.3634 16.4855 15.0147 15.9983 14.4758C15.5099 15.0141 14.8022 15.3634 13.9994 15.3634C13.201 15.3634 12.4902 15.0147 12.003 14.4758C11.5177 15.0141 10.8069 15.3634 10.006 15.3634C9.88167 15.3634 9.75626 15.3547 9.63463 15.3387C7.93969 15.1121 7.13769 13.1145 8.04417 11.6806L9.80038 8.90229C9.95679 8.65258 10.2358 8.5 10.5336 8.5H21.4655C21.7631 8.5 22.0421 8.65252 22.1987 8.90229L23.9549 11.6806C24.8639 13.1176 24.0581 15.1121 22.3577 15.3389Z" fill="white"/>
<path opacity="0.4" d="M22.8632 15.2044L22.8662 22.717C22.8662 23.5292 22.2078 24.1877 21.4232 24.1877H10.6077C9.79545 24.1877 9.1646 23.5292 9.1646 22.717L9.13794 15.2044C9.29551 15.2648 9.45628 15.3148 9.63459 15.3388C9.75623 15.3545 9.88154 15.3637 10.0059 15.3637C10.3963 15.3637 10.7633 15.2783 11.0951 15.131V20.2659H20.9023V15.1309C21.2332 15.2779 21.6009 15.3637 21.9869 15.3637C22.1138 15.3637 22.2355 15.3553 22.3573 15.3394C22.5415 15.3147 22.7039 15.2657 22.8632 15.2044Z" fill="white"/>
</svg>
