<svg width="32" height="32" viewBox="0 0 32 32" fill="none" xmlns="http://www.w3.org/2000/svg">
<rect width="32" height="32" rx="10" fill="#E34B31"/>
<path fill-rule="evenodd" clip-rule="evenodd" d="M14.0969 10.9787C14.3129 11.4779 14.1672 12.0632 13.7461 12.4025L12.9375 13.0627L10.1914 6.19094L10.8477 6.0316C11.4531 5.89985 12.0469 6.19614 12.2812 6.73922L14.0969 10.9787ZM6 8.12907C5.99995 17.9806 14.0156 26.0002 23.8711 26.0002C24.4434 26.0002 24.934 25.6107 25.0609 25.0541L25.4273 23.4658L17.8765 20.3552C15.1719 19.0275 12.9727 16.8283 11.6445 14.09L8.53437 6.57321L6.94609 6.93961C6.38934 7.06735 5.99995 7.55602 6 8.12907ZM25.8086 21.8088L25.9682 21.1173C26.1012 20.5435 25.8039 19.9576 25.2604 19.7193L21.0234 17.9025C20.5242 17.6902 19.9418 17.8332 19.5988 18.2531L18.9355 19.0586L25.8086 21.8088Z" fill="white"/>
<path fill-rule="evenodd" clip-rule="evenodd" d="M12.9375 13.0626L11.6445 14.09L8.53436 6.57318L10.1914 6.19092L12.9375 13.0626ZM25.808 21.8083L25.4258 23.465L17.9096 20.3544L18.9682 19.0583L25.808 21.8083Z" fill="white"/>
</svg>
