<svg width="6" height="20" viewBox="0 0 6 20" fill="none" xmlns="http://www.w3.org/2000/svg">
<path fill-rule="evenodd" clip-rule="evenodd" d="M3 0C4.38203 0 5.5 1.11758 5.5 2.5C5.5 3.88242 4.38203 5 3 5C1.61797 5 0.5 3.88242 0.5 2.5C0.5 1.11758 1.61797 0 3 0ZM3 15C4.38203 15 5.5 16.1176 5.5 17.5C5.5 18.8828 4.38203 20 3 20C1.61797 20 0.5 18.8824 0.5 17.5C0.5 16.1176 1.61797 15 3 15Z" fill="black" fill-opacity="0.6"/>
<path d="M5.5 10C5.5 8.61758 4.38203 7.5 3 7.5C1.61797 7.5 0.5 8.61719 0.5 10C0.5 11.3828 1.61797 12.5 3 12.5C4.38203 12.5 5.5 11.3828 5.5 10Z" fill="black" fill-opacity="0.6"/>
</svg>
