<svg width="21" height="18" viewBox="0 0 21 18" fill="none" xmlns="http://www.w3.org/2000/svg">
<path fill-rule="evenodd" clip-rule="evenodd" d="M2.20837 3.75H17.8334C19.2123 3.75 20.3334 4.87109 20.3334 6.25V15C20.3334 16.3809 19.2142 17.5 17.8334 17.5H2.83337C1.45251 17.5 0.333374 16.3809 0.333374 15V1.875C0.333374 2.91016 1.17283 3.75 2.20837 3.75ZM15.3334 10.625C15.3334 11.3152 15.8931 11.875 16.5834 11.875C17.2748 11.875 17.8334 11.3164 17.8334 10.625C17.8334 9.93477 17.2736 9.375 16.5834 9.375C15.8931 9.375 15.3334 9.93477 15.3334 10.625Z" fill="#E34B31"/>
<path opacity="0.4" d="M19.0834 1.875V4.09688C18.7162 3.88281 18.2904 3.75 17.8334 3.75H2.20837C1.17283 3.75 0.333374 2.91016 0.333374 1.875C0.333374 0.839844 1.17283 0 2.20837 0H17.2084C18.2435 0 19.0834 0.839453 19.0834 1.875Z" fill="#E34B31"/>
</svg>
