<svg width="20" height="18" viewBox="0 0 20 18" fill="none" xmlns="http://www.w3.org/2000/svg">
<path fill-rule="evenodd" clip-rule="evenodd" d="M1.875 3.75H17.5C18.8789 3.75 20 4.87109 20 6.25V15C20 16.3809 18.8809 17.5 17.5 17.5H2.5C1.11914 17.5 0 16.3809 0 15V1.875C0 2.91016 0.839453 3.75 1.875 3.75ZM15 10.625C15 11.3152 15.5598 11.875 16.25 11.875C16.9414 11.875 17.5 11.3164 17.5 10.625C17.5 9.93477 16.9402 9.375 16.25 9.375C15.5598 9.375 15 9.93477 15 10.625Z" fill="black" fill-opacity="0.87"/>
<path opacity="0.4" d="M18.75 1.875V4.09688C18.3828 3.88281 17.957 3.75 17.5 3.75H1.875C0.839453 3.75 0 2.91016 0 1.875C0 0.839844 0.839453 0 1.875 0H16.875C17.9102 0 18.75 0.839453 18.75 1.875Z" fill="black" fill-opacity="0.87"/>
</svg>
