<svg width="32" height="32" viewBox="0 0 32 32" fill="none" xmlns="http://www.w3.org/2000/svg">
<rect width="32" height="32" rx="16" fill="#F4D9D3"/>
<path d="M23.5651 12.3804L16.4818 9.42984C16.3281 9.37364 16.1641 9.34001 16 9.3335C15.8333 9.34001 15.6693 9.37039 15.5182 9.42898L8.4349 12.3804C7.96928 12.5757 7.66667 13.0288 7.66667 13.534V22.2502C7.66667 22.4813 7.85222 22.6668 8.08334 22.6668L9.75001 22.6668C9.98112 22.6668 10.1667 22.4813 10.1667 22.2502V16.0002C10.1667 15.5413 10.5474 15.1903 11.0164 15.1903H20.9852C21.4531 15.1668 21.8333 15.5418 21.8333 16.0002V22.2502C21.8333 22.4813 22.0189 22.6668 22.25 22.6668L23.9167 22.6668C24.1478 22.6668 24.3333 22.4813 24.3333 22.2502V13.534C24.3333 13.0288 24.0313 12.5757 23.5651 12.3804Z" fill="#E34B31"/>
<path opacity="0.4" fill-rule="evenodd" clip-rule="evenodd" d="M15.5832 16.8335H11.4165C11.19 16.8335 10.9999 17.0236 10.9999 17.2502V18.9168C10.9999 19.146 11.19 19.3335 11.4165 19.3335H15.5832C15.8111 19.3335 15.9999 19.1447 15.9999 18.9168V17.2502C15.9999 17.0236 15.8124 16.8335 15.5832 16.8335ZM15.5831 20.1669H11.4164C11.1898 20.1669 10.9997 20.357 10.9997 20.5836V22.2502C10.9997 22.4794 11.1898 22.6669 11.4164 22.6669H15.5831C15.8109 22.6669 15.9997 22.4781 15.9997 22.2502V20.5836C15.9997 20.357 15.8122 20.1669 15.5831 20.1669ZM17.25 20.1669H20.5833C20.8125 20.1669 21 20.357 21 20.5836V22.2502C21 22.4781 20.8112 22.6669 20.5833 22.6669H17.25C17.0221 22.6669 16.8333 22.4781 16.8333 22.2502V20.5836C16.8333 20.3557 17.0221 20.1669 17.25 20.1669Z" fill="#E34B31"/>
</svg>
