<svg width="21" height="26" viewBox="0 0 21 26" fill="none" xmlns="http://www.w3.org/2000/svg">
<rect x="0.199951" width="20" height="20" rx="10" fill="#6F3289"/>
<path d="M14.1735 9.5868C14.0988 9.59637 14.0222 9.60212 13.9418 9.60212C13.443 9.60212 12.9995 9.3842 12.6935 9.04736C12.3907 9.38381 11.9465 9.60212 11.4467 9.60212C10.9478 9.60212 10.5034 9.3842 10.1989 9.04736C9.89367 9.38381 9.45132 9.60212 8.94961 9.60212C8.45058 9.60212 8.00632 9.3842 7.70185 9.04736C7.39853 9.38381 6.95427 9.60212 6.4537 9.60212C6.37602 9.60212 6.29764 9.59666 6.22162 9.58671C5.16228 9.44509 4.66103 8.19656 5.22758 7.30038L6.32521 5.56393C6.42297 5.40786 6.59732 5.3125 6.78345 5.3125H13.6159C13.8019 5.3125 13.9763 5.40782 14.0741 5.56393L15.1718 7.30038C15.7399 8.19848 15.2363 9.44509 14.1735 9.5868Z" fill="white"/>
<path opacity="0.4" d="M14.4894 9.50299L14.4913 14.1984C14.4913 14.706 14.0798 15.1175 13.5894 15.1175H6.82972C6.32207 15.1175 5.92779 14.706 5.92779 14.1984L5.91113 9.50299C6.00962 9.54073 6.11009 9.57202 6.22154 9.58702C6.29756 9.59682 6.37588 9.60257 6.45363 9.60257C6.69759 9.60257 6.927 9.5492 7.13438 9.45715V12.6664H13.2639V9.45703C13.4707 9.54895 13.7005 9.60257 13.9417 9.60257C14.021 9.60257 14.0971 9.59733 14.1733 9.58738C14.2883 9.57193 14.3898 9.54129 14.4894 9.50299Z" fill="white"/>
<circle cx="10.2" cy="24" r="2" fill="#6F3289"/>
</svg>
