<svg width="18" height="14" viewBox="0 0 18 14" fill="none" xmlns="http://www.w3.org/2000/svg">
<path d="M16.5651 3.38024L9.48178 0.42972C9.32813 0.373522 9.16407 0.339884 9.00001 0.333374C8.83334 0.339884 8.66928 0.370267 8.51823 0.428861L1.4349 3.38024C0.969276 3.57555 0.666672 4.02868 0.666672 4.53389V13.25C0.666672 13.4812 0.852219 13.6667 1.08334 13.6667L2.75001 13.6667C2.98112 13.6667 3.16667 13.4812 3.16667 13.25V7.00003C3.16667 6.54118 3.5474 6.19014 4.01641 6.19014H13.9852C14.4531 6.1667 14.8333 6.5417 14.8333 7.00003V13.25C14.8333 13.4812 15.0189 13.6667 15.25 13.6667L16.9167 13.6667C17.1478 13.6667 17.3333 13.4811 17.3333 13.25V4.53389C17.3333 4.02868 17.0313 3.57555 16.5651 3.38024Z" fill="#E34B31"/>
<path opacity="0.4" fill-rule="evenodd" clip-rule="evenodd" d="M8.5832 7.83337H4.41653C4.18997 7.83337 3.99986 8.02348 3.99986 8.25004V9.91671C3.99986 10.1459 4.18997 10.3334 4.41653 10.3334H8.5832C8.81106 10.3334 8.99986 10.1446 8.99986 9.91671V8.25004C8.99986 8.02348 8.81236 7.83337 8.5832 7.83337ZM8.58306 11.1668H4.41639C4.18983 11.1668 3.99973 11.3569 3.99973 11.5834V13.2501C3.99973 13.4793 4.18983 13.6668 4.41639 13.6668H8.58306C8.81093 13.6668 8.99973 13.478 8.99973 13.2501V11.5834C8.99973 11.3569 8.81223 11.1668 8.58306 11.1668ZM10.25 11.1668H13.5833C13.8125 11.1668 14 11.3569 14 11.5834V13.2501C14 13.478 13.8112 13.6668 13.5833 13.6668H10.25C10.0221 13.6668 9.83333 13.478 9.83333 13.2501V11.5834C9.83333 11.3556 10.0221 11.1668 10.25 11.1668Z" fill="#E34B31"/>
</svg>
