<svg width="100" height="100" viewBox="0 0 100 100" fill="none" xmlns="http://www.w3.org/2000/svg">
<path d="M75 75C71.5488 75 68.75 72.2051 68.75 68.75V31.25H31.25C27.7988 31.25 25 28.457 25 25C25 21.543 27.7988 18.75 31.25 18.75H75C78.4512 18.75 81.25 21.5449 81.25 25V68.75C81.25 72.207 78.457 75 75 75Z" fill="#008A45"/>
<path opacity="0.4" d="M68.75 40.0977L29.4141 79.4336C28.1992 80.6445 26.5996 81.25 25 81.25C23.4004 81.25 21.8008 80.6396 20.582 79.4189C18.1406 76.9775 18.1406 73.0225 20.582 70.5811L59.9219 31.25H68.75V40.0977Z" fill="#008A45"/>
</svg>
